<?xml version="1.0" encoding="UTF-8" standalone="no"?>
<svg
   xmlns:dc="http://purl.org/dc/elements/1.1/"
   xmlns:cc="http://creativecommons.org/ns#"
   xmlns:rdf="http://www.w3.org/1999/02/22-rdf-syntax-ns#"
   xmlns:svg="http://www.w3.org/2000/svg"
   xmlns="http://www.w3.org/2000/svg"
   xmlns:sodipodi="http://sodipodi.sourceforge.net/DTD/sodipodi-0.dtd"
   xmlns:inkscape="http://www.inkscape.org/namespaces/inkscape"
   height="150"
   viewBox="0 0 900 600"
   width="225"
   version="1.1"
   id="svg274"
   sodipodi:docname="Georgia.svg"
   inkscape:version="0.92.3 (2405546, 2018-03-11)">
  <metadata
     id="metadata280">
    <rdf:RDF>
      <cc:Work
         rdf:about="">
        <dc:format>image/svg+xml</dc:format>
        <dc:type
           rdf:resource="http://purl.org/dc/dcmitype/StillImage" />
        <dc:title></dc:title>
      </cc:Work>
    </rdf:RDF>
  </metadata>
  <defs
     id="defs278" />
  <sodipodi:namedview
     pagecolor="#ffffff"
     bordercolor="#666666"
     borderopacity="1"
     objecttolerance="10"
     gridtolerance="10"
     guidetolerance="10"
     inkscape:pageopacity="0"
     inkscape:pageshadow="2"
     inkscape:window-width="1920"
     inkscape:window-height="1015"
     id="namedview276"
     showgrid="false"
     inkscape:zoom="0.90679897"
     inkscape:cx="-230.14471"
     inkscape:cy="-7.4745794"
     inkscape:window-x="0"
     inkscape:window-y="0"
     inkscape:window-maximized="1"
     inkscape:current-layer="svg274" />
  <g
     id="g692"
     transform="translate(0,-3720)">
    <path
       id="path2"
       d="m 0,3720 h 900 v 600 H 0 Z"
       inkscape:connector-curvature="0"
       style="fill:#ffffff;stroke-width:0.1344786" />
    <path
       id="path4"
       d="m 0,3720 h 900 v 200 H 0 Z"
       inkscape:connector-curvature="0"
       style="fill:#b50027;stroke-width:0.1344786" />
    <path
       id="path6"
       d="m 0,3720 h 400 v 400 H 0 Z"
       inkscape:connector-curvature="0"
       style="fill:#002d56;stroke-width:0.1388889" />
    <path
       id="path8"
       d="m 208.95347,3774.6926 14.24862,-10.0477 -17.43945,-0.2507 -5.16097,-16.6617 -5.61653,16.5079 -17.43833,-0.2503 13.96694,10.453 -5.61472,16.508 14.24847,-10.0482 13.96709,10.4521 z"
       inkscape:connector-curvature="0"
       style="fill:#ffffff;fill-rule:evenodd;stroke-width:0.1388889" />
    <path
       id="path10"
       d="m 140.42889,3786.9547 7.94736,-15.5175 -15.55792,7.8814 -12.3118,-12.3547 2.6975,17.2265 -15.55681,7.8814 17.22389,2.7654 2.69903,17.2259 7.94722,-15.5178 17.22361,2.7647 z"
       inkscape:connector-curvature="0"
       style="fill:#ffffff;fill-rule:evenodd;stroke-width:0.1388889" />
    <path
       id="path12"
       d="m 85.238195,3829.9956 -0.173611,-17.4327 -10.113333,14.2078 -16.641945,-5.2186 10.392917,13.9997 -10.1125,14.207 16.535694,-5.5546 10.394028,13.9982 -0.17375,-17.4328 16.535135,-5.5552 z"
       inkscape:connector-curvature="0"
       style="fill:#ffffff;fill-rule:evenodd;stroke-width:0.1388889" />
    <path
       id="path14"
       d="m 56.800139,3893.6254 -8.253889,-15.3547 -2.352916,17.2793 -17.160278,3.1121 15.707222,7.5667 -2.3525,17.2781 12.060417,-12.6016 15.707639,7.5648 -8.254167,-15.3548 12.059584,-12.602 z"
       inkscape:connector-curvature="0"
       style="fill:#ffffff;fill-rule:evenodd;stroke-width:0.1388889" />
    <path
       id="path16"
       d="m 60.816945,3963.0204 -14.443056,-9.7604 5.945556,16.3931 -13.748195,10.7293 17.423612,-0.5989 5.945555,16.3921 4.823195,-16.7621 17.423194,-0.6006 -14.443333,-9.7603 4.822361,-16.7619 z"
       inkscape:connector-curvature="0"
       style="fill:#ffffff;fill-rule:evenodd;stroke-width:0.1388889" />
    <path
       id="path18"
       d="m 96.779584,4022.9956 -17.32375,-1.9313 12.881667,11.7525 -7.187639,15.8883 15.149308,-8.6263 12.88111,11.7513 -3.51806,-17.0829 15.14806,-8.6275 -17.32389,-1.9309 -3.51875,-17.0824 z"
       inkscape:connector-curvature="0"
       style="fill:#ffffff;fill-rule:evenodd;stroke-width:0.1388889" />
    <path
       id="path20"
       d="m 156.60195,4059.0057 -16.23639,6.3397 16.8668,4.4204 1.01834,17.4081 9.40555,-14.6775 16.86583,4.4199 -11.05277,-13.4912 9.40389,-14.678 -16.23653,6.34 -11.05306,-13.4903 z"
       inkscape:connector-curvature="0"
       style="fill:#ffffff;fill-rule:evenodd;stroke-width:0.1388889" />
    <path
       id="path22"
       d="m 225.9407,4063.2907 -11.43056,13.1578 16.98847,-3.9234 8.99056,14.9405 1.50805,-17.3663 16.98723,-3.9233 -16.05528,-6.8097 1.50625,-17.366 -11.43042,13.158 -16.05514,-6.8087 z"
       inkscape:connector-curvature="0"
       style="fill:#ffffff;fill-rule:evenodd;stroke-width:0.1388889" />
    <path
       id="path24"
       d="m 289.72445,4034.9299 -4.00695,16.9616 13.21903,-11.3676 14.90292,9.0512 -6.73417,-16.0775 13.21806,-11.3672 -17.38014,1.4307 -6.7357,-16.0764 -4.0068,16.962 -17.37973,1.4315 z"
       inkscape:connector-curvature="0"
       style="fill:#ffffff;fill-rule:evenodd;stroke-width:0.1388889" />
    <path
       id="path26"
       d="m 332.78847,3979.8517 4.33362,16.8804 6.4225,-16.2078 17.40139,1.0895 -13.43334,-11.1064 6.42195,-16.207 -14.72431,9.3427 -13.43403,-11.1049 4.33375,16.8806 -14.72347,9.343 z"
       inkscape:connector-curvature="0"
       style="fill:#ffffff;fill-rule:evenodd;stroke-width:0.1388889" />
    <path
       id="path28"
       d="m 324.92431,3844.8597 16.35208,6.0238 -9.68805,-14.4924 10.78194,-13.6998 -16.77028,4.7443 -9.68778,-14.4914 -0.67708,17.4234 -16.7693,4.7457 16.35222,6.0236 -0.67625,17.4231 z"
       inkscape:connector-curvature="0"
       style="fill:#ffffff;fill-rule:evenodd;stroke-width:0.1388889" />
    <path
       id="path30"
       d="m 275.4925,3795.3729 17.27764,-2.2644 -15.31222,-8.3304 3.18111,-17.1403 -12.64458,11.9932 -15.31153,-8.3296 7.49653,15.7419 -12.64306,11.9942 17.27778,-2.2647 7.49694,15.7411 z"
       inkscape:connector-curvature="0"
       style="fill:#ffffff;fill-rule:evenodd;stroke-width:0.1388889" />
    <path
       id="path32"
       d="m 345.31028,3911.4842 11.6807,12.9329 -1.84431,-17.3353 15.91403,-7.121 -17.055,-3.5922 -1.84459,-17.3342 -8.69625,15.1142 -17.055,-3.5904 11.68111,12.9329 -8.69541,15.1142 z"
       inkscape:connector-curvature="0"
       style="fill:#ffffff;fill-rule:evenodd;stroke-width:0.1388889" />
    <path
       id="path34"
       stroke-miterlimit="3.86369991"
       d="m 127.59347,4010.2803 h -5.04958 v -0.5617 c 0.14222,-0.011 0.34764,-0.026 0.61639,-0.048 0.26861,-0.021 0.45833,-0.053 0.56903,-0.095 0.17389,-0.069 0.30027,-0.1607 0.3793,-0.2768 0.079,-0.1212 0.11861,-0.2874 0.11861,-0.4985 v -8.1336 c 0,-0.1844 -0.0292,-0.3375 -0.0869,-0.4589 -0.0581,-0.1266 -0.19514,-0.2318 -0.41097,-0.3165 -0.15806,-0.063 -0.35834,-0.1211 -0.60056,-0.174 -0.23708,-0.058 -0.43222,-0.092 -0.58472,-0.1029 v -0.5617 h 5.04958 v 0.5617 c -0.16347,0.01 -0.35833,0.026 -0.58472,0.063 -0.22667,0.032 -0.42431,0.074 -0.59264,0.1267 -0.20028,0.063 -0.33458,0.1661 -0.40305,0.3086 -0.0687,0.1423 -0.10278,0.3007 -0.10278,0.4747 v 8.1256 c 0,0.174 0.0368,0.3298 0.11069,0.4668 0.079,0.1319 0.2107,0.2373 0.39514,0.3163 0.1107,0.042 0.28972,0.09 0.53736,0.1424 0.25292,0.048 0.46625,0.074 0.64014,0.079 v 0.5618 z"
       inkscape:connector-curvature="0"
       style="fill:#eed000;fill-rule:evenodd;stroke:#eed000;stroke-width:0.22684722;stroke-miterlimit:3.86369991" />
    <path
       id="path36"
       stroke-miterlimit="3.86369991"
       d="m 141.42945,3999.6149 c -0.14764,0.01 -0.37417,0.048 -0.67959,0.1266 -0.30569,0.079 -0.5243,0.161 -0.65583,0.2453 -0.18972,0.1321 -0.31889,0.3851 -0.38722,0.7596 -0.0632,0.3746 -0.0949,0.8493 -0.0949,1.4242 v 8.2205 h -0.6875 l -6.79612,-9.1858 v 5.7916 c 0,0.6488 0.0396,1.1473 0.11862,1.4955 0.0842,0.348 0.21055,0.5961 0.3793,0.7436 0.12097,0.1162 0.37111,0.2243 0.7507,0.3244 0.3793,0.1004 0.62944,0.1531 0.75069,0.1582 v 0.5617 h -4.59917 v -0.5617 c 0.14223,-0.011 0.38181,-0.061 0.71917,-0.1504 0.33708,-0.095 0.54778,-0.1793 0.63222,-0.2532 0.18417,-0.1476 0.3107,-0.3715 0.37931,-0.6725 0.0685,-0.3058 0.1025,-0.8253 0.10278,-1.5586 v -5.5306 c 0,-0.2425 -0.0422,-0.4851 -0.12639,-0.7279 -0.0845,-0.2426 -0.19764,-0.4297 -0.33986,-0.5616 -0.18959,-0.1742 -0.44792,-0.3217 -0.77445,-0.4431 -0.32153,-0.1265 -0.58236,-0.195 -0.78236,-0.2057 v -0.5617 h 3.20056 l 6.30611,8.5609 v -5.3407 c 0,-0.6539 -0.0422,-1.1549 -0.12639,-1.5034 -0.0845,-0.3533 -0.20542,-0.5879 -0.36347,-0.7041 -0.14764,-0.1002 -0.38987,-0.1975 -0.72695,-0.2928 -0.33194,-0.095 -0.58472,-0.1476 -0.75861,-0.1583 v -0.5617 h 4.55972 v 0.5617 0 z"
       inkscape:connector-curvature="0"
       style="fill:#eed000;fill-rule:evenodd;stroke:#eed000;stroke-width:0.22684722;stroke-miterlimit:3.86369991" />
    <path
       id="path38"
       stroke-miterlimit="3.86369991"
       d="m 157.96792,4005.7942 c -0.12653,0.016 -0.29778,0.042 -0.51361,0.079 -0.21084,0.032 -0.38209,0.079 -0.51361,0.1424 -0.15806,0.079 -0.27139,0.1926 -0.33987,0.3402 -0.0632,0.1424 -0.0949,0.3113 -0.0949,0.5064 v 0.8704 c 0,0.633 0.002,1.0602 0.008,1.2817 0.0104,0.2215 0.021,0.4036 0.0317,0.546 -0.70084,0.3164 -1.39875,0.5591 -2.09417,0.7279 -0.69542,0.1686 -1.37778,0.2529 -2.04681,0.2532 -0.71666,0 -1.40666,-0.1345 -2.07041,-0.4035 -0.66389,-0.269 -1.24347,-0.6512 -1.73861,-1.1472 -0.50056,-0.501 -0.89848,-1.1101 -1.19334,-1.8276 -0.29514,-0.7174 -0.4425,-1.5189 -0.4425,-2.4053 0,-0.8546 0.13945,-1.6457 0.41875,-2.3736 0.28445,-0.7331 0.68473,-1.3686 1.20111,-1.9068 0.50028,-0.5274 1.0957,-0.9361 1.78598,-1.2264 0.69541,-0.2952 1.43819,-0.4428 2.22847,-0.4431 0.63222,0 1.18264,0.077 1.65153,0.2295 0.46875,0.153 0.88236,0.3377 1.24069,0.5539 l 0.32403,-0.5381 h 0.63222 l 0.0711,3.9243 h -0.64805 c -0.1107,-0.4324 -0.24764,-0.8569 -0.41084,-1.2739 -0.16347,-0.4217 -0.37416,-0.7987 -0.63222,-1.1314 -0.25833,-0.3323 -0.57444,-0.5958 -0.94833,-0.7912 -0.36889,-0.2003 -0.81153,-0.3004 -1.32764,-0.3007 -0.56375,0 -1.06681,0.1162 -1.50931,0.348 -0.4425,0.227 -0.82736,0.5671 -1.15375,1.0207 -0.32152,0.4379 -0.56902,0.9838 -0.74291,1.6378 -0.17389,0.6542 -0.26084,1.3846 -0.26084,2.1917 0,0.7121 0.0842,1.3846 0.25292,2.0175 0.17389,0.6278 0.42403,1.1709 0.75069,1.6298 0.32639,0.4696 0.73473,0.8388 1.22487,1.1077 0.49,0.2691 1.04555,0.4036 1.6675,0.4036 0.46347,0 0.88486,-0.071 1.26444,-0.2136 0.38444,-0.1425 0.65569,-0.2928 0.81389,-0.451 0.0419,-0.2742 0.0629,-0.5511 0.0632,-0.8307 0.005,-0.2794 0.008,-0.5167 0.008,-0.7121 v -0.6171 c 0,-0.2215 -0.0317,-0.4166 -0.0949,-0.5855 -0.0581,-0.174 -0.18181,-0.3007 -0.37139,-0.3797 -0.17389,-0.079 -0.41097,-0.137 -0.71125,-0.1742 -0.29514,-0.042 -0.52694,-0.068 -0.69542,-0.079 v -0.5775 h 4.91542 v 0.5775 0 z"
       inkscape:connector-curvature="0"
       style="fill:#eed000;fill-rule:evenodd;stroke:#eed000;stroke-width:0.22684722;stroke-miterlimit:3.86369991" />
    <path
       id="path40"
       stroke-miterlimit="3.86369991"
       d="m 168.99417,4000.3824 c 0.49514,0.517 0.88236,1.142 1.16166,1.8751 0.27903,0.7279 0.41862,1.5349 0.41889,2.4211 0,0.8915 -0.14222,1.7011 -0.4268,2.429 -0.28459,0.728 -0.67959,1.3478 -1.18542,1.8593 -0.49,0.5064 -1.05889,0.8969 -1.70694,1.171 -0.64806,0.2743 -1.33834,0.4111 -2.07042,0.4114 -0.77986,0 -1.50139,-0.145 -2.16528,-0.4351 -0.65861,-0.2952 -1.22486,-0.7039 -1.69903,-1.2264 -0.47416,-0.5115 -0.84833,-1.1313 -1.12222,-1.8593 -0.26861,-0.7331 -0.40305,-1.5164 -0.40305,-2.3499 0,-0.9123 0.14222,-1.7246 0.4268,-2.4369 0.28445,-0.7173 0.67695,-1.3368 1.1775,-1.8593 0.49514,-0.5168 1.06931,-0.9124 1.72278,-1.1868 0.65833,-0.2743 1.34583,-0.4112 2.0625,-0.4114 0.74278,0 1.44347,0.14 2.10208,0.4193 0.65848,0.2797 1.22736,0.6725 1.70695,1.1789 z m -1.17736,7.9594 c 0.29486,-0.48 0.50819,-1.0232 0.64014,-1.6299 0.1368,-0.6065 0.20513,-1.2843 0.20541,-2.0334 0,-0.77 -0.0765,-1.4768 -0.22916,-2.1204 -0.14764,-0.6434 -0.36625,-1.1921 -0.65598,-1.6457 -0.28986,-0.4484 -0.65347,-0.7963 -1.09055,-1.0445 -0.43736,-0.2532 -0.93792,-0.3797 -1.50153,-0.3797 -0.63222,0 -1.16958,0.1451 -1.61208,0.4351 -0.4425,0.2903 -0.80361,0.678 -1.08264,1.1631 -0.26347,0.4643 -0.46111,1.0075 -0.59264,1.6299 -0.12639,0.6225 -0.18972,1.2765 -0.18972,1.9622 0,0.7596 0.0683,1.4454 0.20541,2.0572 0.13681,0.6119 0.35292,1.1551 0.64806,1.6299 0.28444,0.4643 0.6425,0.8282 1.07472,1.0918 0.43195,0.2586 0.94806,0.3877 1.54889,0.3877 0.56347,0 1.07208,-0.1318 1.52514,-0.3957 0.45305,-0.2634 0.82167,-0.6326 1.10653,-1.1076 z"
       inkscape:connector-curvature="0"
       style="fill:#eed000;fill-rule:evenodd;stroke:#eed000;stroke-width:0.22684722;stroke-miterlimit:3.86369991" />
    <path
       id="path42"
       stroke-miterlimit="3.86369991"
       d="m 182.99695,4004.734 c 0,0.9549 -0.17931,1.7828 -0.53737,2.4843 -0.35833,0.7017 -0.82458,1.2766 -1.39875,1.7249 -0.57958,0.4485 -1.23027,0.7833 -1.95194,1.0047 -0.72181,0.2215 -1.46736,0.3324 -2.23639,0.3324 h -4.64667 v -0.5617 c 0.15264,0 0.35014,-0.013 0.59264,-0.04 0.24736,-0.032 0.4107,-0.066 0.49,-0.1029 0.15806,-0.069 0.27111,-0.1686 0.33986,-0.3005 0.0736,-0.137 0.11042,-0.3005 0.11056,-0.4906 v -8.1018 c 0,-0.1793 -0.0317,-0.34 -0.0949,-0.4826 -0.0581,-0.1424 -0.17653,-0.2557 -0.35556,-0.3402 -0.16347,-0.079 -0.33986,-0.1369 -0.52944,-0.174 -0.18958,-0.037 -0.35306,-0.061 -0.49,-0.071 v -0.5617 h 4.89958 c 0.67417,0 1.33792,0.1056 1.99139,0.3164 0.6532,0.2057 1.22208,0.4854 1.70695,0.8388 0.65833,0.4694 1.17472,1.0839 1.54888,1.8434 0.37375,0.7595 0.56084,1.6535 0.56112,2.6821 z m -1.93625,-0.01 c 0,-0.7542 -0.10028,-1.4346 -0.30028,-2.0413 -0.20028,-0.6116 -0.49264,-1.1444 -0.87722,-1.5981 -0.36348,-0.4325 -0.81153,-0.7727 -1.34334,-1.0207 -0.52694,-0.2478 -1.11416,-0.3716 -1.76222,-0.3718 -0.21611,0 -0.46097,0.01 -0.73486,0.016 -0.26861,0.01 -0.46889,0.011 -0.60056,0.016 v 8.632 c 0,0.4801 0.13959,0.8125 0.41889,0.9969 0.27903,0.1847 0.70847,0.277 1.28806,0.277 0.66903,0 1.25375,-0.1187 1.7543,-0.356 0.50042,-0.2374 0.90611,-0.567 1.21695,-0.989 0.32653,-0.4431 0.56361,-0.9546 0.71125,-1.535 0.1525,-0.5856 0.22889,-1.2606 0.22903,-2.0256 z"
       inkscape:connector-curvature="0"
       style="fill:#eed000;fill-rule:evenodd;stroke:#eed000;stroke-width:0.22684722;stroke-miterlimit:3.86369991" />
    <path
       id="path44"
       stroke-miterlimit="3.86369991"
       d="m 204.41097,3999.6149 c -0.1318,0.01 -0.28444,0.037 -0.45833,0.095 -0.17389,0.053 -0.33458,0.1241 -0.48208,0.2136 -0.18445,0.1161 -0.33459,0.2507 -0.45042,0.4034 -0.11069,0.1478 -0.20819,0.356 -0.29236,0.625 -0.37417,1.2184 -0.80875,2.6425 -1.30389,4.2725 -0.49542,1.6248 -1.03,3.3574 -1.60431,5.1982 h -0.72694 l -2.82903,-8.6398 -2.94764,8.6398 h -0.69541 c -0.52153,-1.8459 -1.06167,-3.7607 -1.62,-5.744 -0.55861,-1.9883 -0.9325,-3.3203 -1.12223,-3.9955 -0.0474,-0.1635 -0.11861,-0.3084 -0.21333,-0.4352 -0.0897,-0.1265 -0.21333,-0.2425 -0.37139,-0.348 -0.1318,-0.09 -0.28722,-0.1556 -0.46625,-0.1978 -0.17389,-0.048 -0.33194,-0.076 -0.47416,-0.087 v -0.5617 h 4.57555 v 0.5617 c -0.40055,0.021 -0.74278,0.061 -1.02722,0.1188 -0.27931,0.058 -0.41889,0.1558 -0.41889,0.2927 0,0.053 0.008,0.1242 0.0238,0.2136 0.0158,0.085 0.0289,0.1531 0.0394,0.2057 0.12098,0.4643 0.33445,1.2318 0.64014,2.3024 0.3107,1.0656 0.76903,2.6639 1.375,4.7947 l 2.79736,-8.3314 h 0.77445 l 2.82111,8.5134 c 0.37931,-1.308 0.70583,-2.45 0.98,-3.426 0.27389,-0.981 0.50028,-1.8199 0.67958,-2.516 0.12639,-0.4905 0.20542,-0.8253 0.23709,-1.0048 0.0317,-0.1845 0.0475,-0.34 0.0475,-0.4668 0,-0.1794 -0.12403,-0.3296 -0.37139,-0.451 -0.2425,-0.1213 -0.63764,-0.2029 -1.18542,-0.2454 v -0.5617 h 4.06972 z"
       inkscape:connector-curvature="0"
       style="fill:#eed000;fill-rule:evenodd;stroke:#eed000;stroke-width:0.22684722;stroke-miterlimit:3.86369991" />
    <path
       id="path46"
       stroke-miterlimit="3.86369991"
       d="m 215.29931,4006.9731 -0.21334,3.3072 h -9.30902 v -0.5617 c 0.15805,-0.011 0.36875,-0.031 0.63222,-0.063 0.26333,-0.037 0.4343,-0.074 0.51361,-0.1109 0.16847,-0.079 0.2843,-0.182 0.34778,-0.3086 0.0683,-0.1265 0.1025,-0.2872 0.10277,-0.4826 v -8.0703 c 0,-0.174 -0.0292,-0.3269 -0.0869,-0.4589 -0.0581,-0.1369 -0.17931,-0.2476 -0.36347,-0.3323 -0.14222,-0.069 -0.33459,-0.1291 -0.57681,-0.182 -0.23708,-0.053 -0.42666,-0.084 -0.56903,-0.095 v -0.5616 h 8.67695 v 2.7058 h -0.59264 c -0.10555,-0.4008 -0.33458,-0.8253 -0.6875,-1.2739 -0.34778,-0.4535 -0.67958,-0.7014 -0.99569,-0.7436 -0.16348,-0.021 -0.35834,-0.037 -0.58486,-0.047 -0.22667,-0.011 -0.48473,-0.016 -0.77445,-0.016 h -1.76222 v 4.4623 h 1.26444 c 0.40542,0 0.70056,-0.037 0.88514,-0.1107 0.18959,-0.079 0.3557,-0.2083 0.49778,-0.3878 0.11583,-0.1527 0.21306,-0.3558 0.29236,-0.6091 0.0842,-0.2584 0.13958,-0.501 0.16597,-0.7279 h 0.59278 v 4.3911 h -0.59278 c -0.0213,-0.2532 -0.079,-0.5195 -0.17375,-0.7992 -0.0897,-0.2847 -0.18444,-0.4904 -0.28444,-0.6171 -0.16347,-0.2057 -0.35042,-0.3401 -0.56111,-0.4034 -0.20556,-0.063 -0.47959,-0.095 -0.82181,-0.095 h -1.26444 v 3.3705 c 0,0.3378 0.0237,0.6042 0.0711,0.7992 0.0475,0.1953 0.13958,0.3429 0.27653,0.443 0.1368,0.1004 0.32375,0.1661 0.56111,0.1978 0.23708,0.026 0.57416,0.04 1.01153,0.04 h 0.6875 c 0.28444,0 0.52402,-0.01 0.71902,-0.032 0.2,-0.021 0.40542,-0.058 0.61639,-0.1108 0.21584,-0.058 0.36875,-0.1342 0.45834,-0.2295 0.24222,-0.2531 0.49513,-0.6354 0.75861,-1.1472 0.26875,-0.5168 0.43986,-0.8965 0.51361,-1.1393 h 0.56875 v 0 z"
       inkscape:connector-curvature="0"
       style="fill:#eed000;fill-rule:evenodd;stroke:#eed000;stroke-width:0.22684722;stroke-miterlimit:3.86369991" />
    <path
       id="path48"
       stroke-miterlimit="3.86369991"
       d="m 231.79278,4002.0993 h -0.54528 c -0.0474,-0.1899 -0.1343,-0.4139 -0.26069,-0.6725 -0.12125,-0.2636 -0.25834,-0.5117 -0.41097,-0.7437 -0.15806,-0.2427 -0.33181,-0.4535 -0.52153,-0.633 -0.18459,-0.1844 -0.36361,-0.29 -0.53736,-0.3165 -0.16348,-0.021 -0.36903,-0.037 -0.61639,-0.047 -0.24764,-0.011 -0.47695,-0.016 -0.6875,-0.016 h -0.45834 v 8.98 c 0,0.1742 0.0368,0.3352 0.1107,0.4828 0.0736,0.1424 0.20278,0.2531 0.38722,0.3324 0.0949,0.037 0.29236,0.087 0.59278,0.1502 0.30542,0.063 0.5425,0.098 0.71125,0.103 v 0.5616 h -5.29472 v -0.5616 c 0.1475,-0.011 0.37125,-0.031 0.67166,-0.063 0.30556,-0.032 0.51625,-0.071 0.63223,-0.1186 0.17388,-0.068 0.30027,-0.166 0.3793,-0.2928 0.0842,-0.1316 0.12625,-0.3058 0.12639,-0.5222 v -9.0512 h -0.45833 c -0.16348,0 -0.36625,0.01 -0.60848,0.016 -0.2425,0.01 -0.47416,0.021 -0.69541,0.047 -0.17389,0.021 -0.3557,0.1266 -0.54528,0.3165 -0.18444,0.1847 -0.35556,0.3955 -0.51361,0.6329 -0.15806,0.2374 -0.29778,0.4906 -0.41875,0.7596 -0.12125,0.2637 -0.20542,0.4826 -0.25292,0.6566 h -0.55319 v -3.0461 h 9.76736 v 3.046 0 z"
       inkscape:connector-curvature="0"
       style="fill:#eed000;fill-rule:evenodd;stroke:#eed000;stroke-width:0.22684722;stroke-miterlimit:3.86369991" />
    <path
       id="path50"
       stroke-miterlimit="3.86369991"
       d="m 244.5382,4010.2803 h -3.01875 c -0.66917,-1.0496 -1.275,-1.9567 -1.8175,-2.7217 -0.53736,-0.7647 -1.12223,-1.5532 -1.75431,-2.3657 h -1.14583 v 3.5604 c 0,0.1846 0.0289,0.3481 0.0869,0.4905 0.0578,0.1372 0.18153,0.2429 0.37139,0.3165 0.0949,0.037 0.26083,0.071 0.49792,0.1028 0.23708,0.032 0.43708,0.05 0.60055,0.055 v 0.5616 h -4.74152 v -0.5616 c 0.12638,-0.011 0.30819,-0.029 0.54527,-0.055 0.24223,-0.026 0.4107,-0.061 0.50584,-0.1028 0.15805,-0.069 0.27111,-0.1686 0.33972,-0.3007 0.0736,-0.1318 0.11042,-0.3004 0.11069,-0.5064 v -8.1178 c 0,-0.1844 -0.0264,-0.3479 -0.079,-0.4905 -0.0529,-0.1424 -0.17653,-0.2506 -0.37139,-0.3245 -0.13195,-0.048 -0.30306,-0.09 -0.51361,-0.1265 -0.21098,-0.042 -0.39,-0.069 -0.53737,-0.079 v -0.5616 h 5.17612 c 0.47416,0 0.91916,0.05 1.33555,0.1502 0.41611,0.095 0.79264,0.2509 1.13,0.4668 0.32653,0.2113 0.58722,0.4881 0.78236,0.8307 0.19486,0.3378 0.29222,0.7464 0.29236,1.2264 0,0.4328 -0.066,0.815 -0.1975,1.1472 -0.1318,0.3324 -0.32666,0.6199 -0.58472,0.8624 -0.23708,0.2271 -0.52153,0.4249 -0.85347,0.5933 -0.33181,0.1638 -0.69806,0.3035 -1.09833,0.4195 0.55305,0.7333 1.01138,1.3505 1.375,1.8514 0.36875,0.5011 0.81902,1.1104 1.35125,1.8276 0.23166,0.3164 0.43986,0.5514 0.6243,0.7042 0.18972,0.1478 0.37667,0.269 0.56111,0.3639 0.13681,0.069 0.30792,0.1214 0.51361,0.1583 0.20542,0.037 0.37653,0.058 0.51361,0.063 v 0.562 0 z m -4.15667,-8.371 c 0,-0.6804 -0.195,-1.2183 -0.58472,-1.614 -0.39,-0.4009 -0.94042,-0.601 -1.65167,-0.6013 h -1.34333 v 4.8184 h 1.03528 c 0.72708,0 1.33277,-0.232 1.8175,-0.6963 0.4843,-0.4692 0.72666,-1.1048 0.72694,-1.9068 z"
       inkscape:connector-curvature="0"
       style="fill:#eed000;fill-rule:evenodd;stroke:#eed000;stroke-width:0.22684722;stroke-miterlimit:3.86369991" />
    <path
       id="path52"
       stroke-miterlimit="3.86369991"
       d="m 256.26542,3999.6149 c -0.14764,0.01 -0.36347,0.037 -0.64806,0.095 -0.28444,0.058 -0.51639,0.1451 -0.69541,0.2611 -0.17931,0.1215 -0.30306,0.3718 -0.37139,0.7516 -0.0686,0.3798 -0.10278,0.8442 -0.10278,1.3925 v 4.8817 c 0,0.6225 -0.12917,1.1631 -0.38722,1.622 -0.25834,0.4588 -0.59806,0.8362 -1.01945,1.1313 -0.41639,0.2848 -0.85611,0.4881 -1.31972,0.6092 -0.45833,0.1265 -0.89847,0.1899 -1.31972,0.1899 -0.67445,0 -1.275,-0.09 -1.80181,-0.2691 -0.52694,-0.174 -0.96958,-0.4113 -1.32764,-0.712 -0.35305,-0.3007 -0.61916,-0.6434 -0.79819,-1.0287 -0.17931,-0.3901 -0.26875,-0.7963 -0.26875,-1.2184 v -6.6381 c 0,-0.1844 -0.0315,-0.3375 -0.0949,-0.4589 -0.0581,-0.1265 -0.17931,-0.2425 -0.36347,-0.348 -0.13181,-0.074 -0.30028,-0.1318 -0.50584,-0.1741 -0.20541,-0.048 -0.37416,-0.076 -0.50583,-0.087 v -0.5617 h 4.67042 v 0.5617 c -0.14764,0.01 -0.33459,0.029 -0.56111,0.071 -0.22125,0.042 -0.38473,0.082 -0.49,0.1186 -0.17931,0.063 -0.30028,0.1689 -0.36348,0.3165 -0.058,0.1478 -0.0869,0.3086 -0.0869,0.4826 v 6.2031 c 0,0.3007 0.0317,0.6171 0.0949,0.9494 0.0685,0.3271 0.2,0.6329 0.39514,0.9177 0.20542,0.2902 0.48458,0.5276 0.83764,0.7121 0.35291,0.1847 0.83736,0.2769 1.45403,0.2769 0.5793,0 1.06416,-0.092 1.45402,-0.2769 0.39514,-0.1845 0.70584,-0.427 0.9325,-0.7278 0.21584,-0.2849 0.36875,-0.5828 0.45834,-0.8942 0.0894,-0.311 0.13416,-0.6249 0.1343,-0.9415 v -4.6049 c 0,-0.5854 -0.0422,-1.0626 -0.12639,-1.4321 -0.0844,-0.3743 -0.20819,-0.6195 -0.37139,-0.7358 -0.18444,-0.1318 -0.43736,-0.2346 -0.75861,-0.3086 -0.31611,-0.074 -0.55861,-0.116 -0.72708,-0.1267 v -0.5616 h 4.58347 v 0.5618 0 z"
       inkscape:connector-curvature="0"
       style="fill:#eed000;fill-rule:evenodd;stroke:#eed000;stroke-width:0.22684722;stroke-miterlimit:3.86369991" />
    <path
       id="path54"
       stroke-miterlimit="3.86369991"
       d="m 264.58195,4005.1296 c 0.23708,0.2637 0.41097,0.5539 0.52152,0.8704 0.11584,0.3113 0.17362,0.6751 0.17389,1.0918 0,0.9917 -0.36625,1.8093 -1.09847,2.4526 -0.73236,0.6437 -1.64125,0.965 -2.72625,0.9653 -0.50055,0 -1.00111,-0.077 -1.50153,-0.2294 -0.50055,-0.1584 -0.9325,-0.3482 -1.29597,-0.5697 l -0.33986,0.5776 h -0.63222 l -0.1107,-3.8453 h 0.64014 c 0.13167,0.4747 0.28417,0.9047 0.45834,1.2897 0.17902,0.3798 0.41333,0.7359 0.70333,1.0681 0.27389,0.3112 0.59236,0.5592 0.95625,0.7436 0.36875,0.1847 0.79542,0.277 1.28028,0.277 0.36347,0 0.67958,-0.048 0.94819,-0.1424 0.27389,-0.095 0.49514,-0.2295 0.66389,-0.4035 0.16833,-0.174 0.29222,-0.3771 0.37139,-0.6093 0.0842,-0.2373 0.12611,-0.5089 0.12639,-0.815 0,-0.4482 -0.12639,-0.8648 -0.37931,-1.25 -0.25291,-0.3901 -0.62972,-0.6857 -1.13,-0.8861 -0.3425,-0.1369 -0.735,-0.2874 -1.1775,-0.451 -0.4425,-0.1687 -0.82458,-0.3269 -1.14583,-0.4747 -0.63222,-0.2847 -1.12486,-0.6567 -1.47778,-1.1155 -0.34764,-0.4641 -0.52153,-1.068 -0.52153,-1.8119 0,-0.4272 0.0869,-0.8252 0.26084,-1.1947 0.17389,-0.3691 0.42125,-0.6987 0.74277,-0.989 0.30542,-0.2742 0.66625,-0.4878 1.08264,-0.6408 0.41611,-0.1582 0.8507,-0.2374 1.30389,-0.2374 0.51611,0 0.97722,0.079 1.38292,0.2374 0.41097,0.1583 0.78486,0.3429 1.12208,0.5539 l 0.32403,-0.5381 H 264.74 l 0.0632,3.7265 h -0.64014 c -0.11611,-0.4272 -0.24764,-0.8359 -0.39514,-1.2264 -0.14222,-0.3901 -0.32945,-0.7434 -0.56111,-1.0601 -0.22667,-0.3058 -0.50334,-0.5485 -0.82972,-0.7279 -0.32681,-0.1845 -0.72709,-0.2767 -1.20112,-0.277 -0.50055,0 -0.92736,0.161 -1.28027,0.4827 -0.35306,0.3219 -0.52945,0.7147 -0.52945,1.1789 0,0.4854 0.11306,0.8889 0.33986,1.2105 0.22653,0.3165 0.5557,0.5777 0.98778,0.7834 0.38458,0.1847 0.76111,0.3456 1.13014,0.4826 0.37389,0.1321 0.73472,0.2744 1.08264,0.4274 0.31611,0.137 0.61889,0.2926 0.90875,0.4666 0.29486,0.174 0.55055,0.3772 0.76653,0.6092 z"
       inkscape:connector-curvature="0"
       style="fill:#eed000;fill-rule:evenodd;stroke:#eed000;stroke-width:0.22684722;stroke-miterlimit:3.86369991" />
    <path
       id="path56"
       stroke-miterlimit="3.86369991"
       d="m 276.71889,4002.0993 h -0.54528 c -0.0474,-0.1899 -0.1343,-0.4139 -0.26069,-0.6725 -0.12125,-0.2636 -0.25833,-0.5117 -0.41097,-0.7437 -0.15806,-0.2427 -0.33195,-0.4535 -0.52153,-0.633 -0.18445,-0.1844 -0.36347,-0.29 -0.53736,-0.3165 -0.16347,-0.021 -0.36889,-0.037 -0.61639,-0.047 -0.24764,-0.011 -0.47681,-0.016 -0.6875,-0.016 h -0.45833 v 8.98 c 0,0.1742 0.0368,0.3352 0.11055,0.4828 0.0736,0.1424 0.20278,0.2531 0.38722,0.3324 0.0949,0.037 0.29236,0.087 0.59264,0.1502 0.30542,0.063 0.5425,0.098 0.71125,0.103 v 0.5616 h -5.29472 v -0.5616 c 0.1475,-0.011 0.37111,-0.031 0.67167,-0.063 0.30541,-0.032 0.51611,-0.071 0.63222,-0.1186 0.17375,-0.068 0.30028,-0.166 0.3793,-0.2928 0.0842,-0.1316 0.12625,-0.3058 0.12653,-0.5222 v -9.0512 h -0.45833 c -0.16347,0 -0.36625,0.01 -0.60847,0.016 -0.2425,0.01 -0.47417,0.021 -0.69542,0.047 -0.17375,0.021 -0.35556,0.1266 -0.54528,0.3165 -0.18444,0.1847 -0.35555,0.3955 -0.51361,0.6329 -0.15805,0.2374 -0.29792,0.4906 -0.41889,0.7596 -0.12125,0.2637 -0.20541,0.4826 -0.25291,0.6566 h -0.5532 v -3.0461 h 9.7675 z"
       inkscape:connector-curvature="0"
       style="fill:#eed000;fill-rule:evenodd;stroke:#eed000;stroke-width:0.22684722;stroke-miterlimit:3.86369991" />
    <path
       id="path58"
       d="m 200.40083,3868.0818 c 0.0228,-0.01 0.0357,-0.012 0.0365,-0.012 0.009,0 1.39459,0.4957 1.40639,2.6663 1.22625,-0.2298 1.72125,0.4179 1.48486,1.9426 0,0 -1.45583,-0.3936 -1.69347,0.4365 -0.35694,0.9597 -0.0847,1.7416 0.81653,2.3456 0,0 1.51389,1.1997 2.46653,-1.0743 0.95263,-2.2741 1.29555,-3.0475 1.29555,-3.0475 0.265,-0.8378 1.84236,-2.8011 3.27472,-3.0763 0.5457,-0.2187 1.06806,-0.1755 1.65084,-0.036 0,0 1.25333,0.2712 1.28889,1.3186 0.0357,1.0472 -0.39195,1.503 -1.09875,1.8069 -0.78139,0.336 -1.74625,-0.3851 -1.74625,-0.3851 -0.33639,-0.063 -0.44375,0.053 -0.65042,0.1968 -0.0951,0.066 -0.49181,0.5014 -0.72167,0.9915 0,0 -0.69569,1.4706 -1.0275,2.5938 -0.26139,0.8844 -0.8375,3.5596 -3.54597,3.9611 h -6.39194 c -2.70848,-0.4015 -3.28459,-3.0767 -3.54598,-3.9611 -0.33194,-1.1232 -1.0275,-2.5938 -1.0275,-2.5938 -0.22986,-0.4901 -0.62652,-0.9255 -0.72166,-0.9915 -0.20653,-0.1432 -0.31403,-0.2596 -0.65042,-0.1968 0,0 -0.965,0.7211 -1.74639,0.3851 -0.7068,-0.3039 -1.13444,-0.7596 -1.09875,-1.8069 0.0357,-1.0474 1.28903,-1.3186 1.28903,-1.3186 0.58278,-0.1392 1.10514,-0.1825 1.65083,0.036 1.43236,0.2752 3.00972,2.2385 3.27459,3.0763 0,0 0.34291,0.7734 1.29555,3.0475 0.9525,2.274 2.46653,1.0743 2.46653,1.0743 0.90125,-0.604 1.17333,-1.386 0.81653,-2.3456 -0.2375,-0.8303 -1.69348,-0.4365 -1.69348,-0.4365 -0.23625,-1.5247 0.25862,-2.1722 1.48487,-1.9426 0.0118,-2.1706 1.3975,-2.6698 1.40652,-2.6663 0.001,0 0.0138,0 0.0365,0.012 z"
       inkscape:connector-curvature="0"
       style="fill:#eed000;stroke-width:0.1388889" />
    <path
       id="path60"
       stroke-miterlimit="3.86369991"
       d="m 208.355,3941.1056 h -15.47319 l 1.82611,-60.3718 h 11.89291 z"
       inkscape:connector-curvature="0"
       style="fill:#eed000;fill-rule:evenodd;stroke:#002d56;stroke-width:1.17904174;stroke-miterlimit:3.86369991" />
    <path
       id="path62"
       stroke-miterlimit="3.86369991"
       d="m 208.28875,3974.6772 h -16.43111 l -0.001,-27.4155 16.43181,-0.01 z"
       inkscape:connector-curvature="0"
       style="fill:#eed000;fill-rule:evenodd;stroke:#002d56;stroke-width:1.17904174;stroke-miterlimit:3.86369991" />
    <path
       id="path64"
       stroke-miterlimit="3.86369991"
       d="M 191.58861,3944.1353 H 208.245 c 1.16028,0 2.1007,0.7071 2.1007,1.5794 0,0.8724 -0.94056,1.5795 -2.1007,1.5795 h -16.65639 c -1.16028,0 -2.10069,-0.7071 -2.10069,-1.5795 0,-0.8723 0.94041,-1.5794 2.10069,-1.5794 z"
       inkscape:connector-curvature="0"
       style="fill:#eed000;stroke:#002d56;stroke-width:1.17904174;stroke-miterlimit:3.86369991" />
    <path
       id="path66"
       stroke-miterlimit="3.86369991"
       d="m 192.82361,3941.1719 h 14.54 c 1.03306,0 1.87056,0.6634 1.87056,1.4817 v 0 c 0,0.8183 -0.8375,1.4817 -1.87056,1.4817 h -14.54 c -1.03305,0 -1.87055,-0.6634 -1.87055,-1.4817 v 0 c 0,-0.8183 0.8375,-1.4817 1.87055,-1.4817 z"
       inkscape:connector-curvature="0"
       style="fill:#eed000;fill-rule:evenodd;stroke:#002d56;stroke-width:1.17904174;stroke-miterlimit:3.86369991" />
    <path
       id="path68"
       stroke-miterlimit="3.86369991"
       d="m 195.5657,3952.3969 h 8.77833 v 18.0747 h -8.77833 z"
       inkscape:connector-curvature="0"
       style="fill:none;stroke:#002d56;stroke-width:1.17904174;stroke-miterlimit:3.86369991" />
    <path
       id="path70"
       stroke-miterlimit="3.86369991"
       d="m 195.38278,3878.6279 h 10.08389 c 0.82875,0 1.50055,0.4882 1.50055,1.0906 0,0.6022 -0.6718,1.0904 -1.50055,1.0904 h -10.08389 c -0.82875,0 -1.50056,-0.4882 -1.50056,-1.0904 1.4e-4,-0.6022 0.67195,-1.0906 1.50056,-1.0906 z"
       inkscape:connector-curvature="0"
       style="fill:#eed000;stroke:#002d56;stroke-width:0.68054169;stroke-miterlimit:3.86369991" />
    <path
       id="path72"
       stroke-miterlimit="3.86369991"
       d="m 117.73833,3977.9578 h 167.46376 v 5.6468 H 117.73833 Z"
       inkscape:connector-curvature="0"
       style="fill:#eed000;fill-rule:evenodd;stroke:#002d56;stroke-width:1.38888896;stroke-miterlimit:3.86369991" />
    <path
       id="path74"
       stroke-miterlimit="3.86369991"
       d="M 110.59375,3983.5567 H 292.4625 v 5.9791 H 110.59375 Z"
       inkscape:connector-curvature="0"
       style="fill:#eed000;stroke:#002d56;stroke-width:0.83334726;stroke-miterlimit:3.86369991" />
    <path
       id="path76"
       stroke-miterlimit="3.86369991"
       d="m 122.69014,3855.3418 h 156.35931 v 3.4594 H 122.69014 Z"
       inkscape:connector-curvature="0"
       style="fill:#eed000;fill-rule:evenodd;stroke:#002d56;stroke-width:1.32644439;stroke-miterlimit:3.86369991" />
    <path
       id="path78"
       style="fill:#eed000;fill-rule:evenodd;stroke:#002d56;stroke-width:0.68054169;stroke-linejoin:round;stroke-miterlimit:3.86369991"
       d="m 249.59736,3855.2358 c -8.10097,-19.407 -26.90222,-32.9672 -48.80278,-32.9672 -21.88736,0 -40.67861,13.579 -48.78777,32.9672 h -19.43556 c 8.98945,-29.8293 36.16403,-51.6975 68.22347,-51.6975 32.08125,0 59.27167,21.8274 68.25195,51.688 z"
       inkscape:connector-curvature="0" />
    <path
       id="path80"
       stroke-miterlimit="3.86369991"
       d="m 126.89181,3858.8447 c 0,0 2.70264,1.6167 4.95347,6.4302 l 139.10097,-0.01 c 0,0 2.28764,-5.3821 5.43875,-6.435 z"
       inkscape:connector-curvature="0"
       style="fill:#eed000;fill-rule:evenodd;stroke:#002d56;stroke-width:0.83334726;stroke-miterlimit:3.86369991" />
    <path
       id="path82"
       style="fill:#eed000;fill-rule:evenodd;stroke:#002d56;stroke-width:0.68054169;stroke-linejoin:round;stroke-miterlimit:3.86369991"
       d="m 161.40181,3866.5251 c 0,0 12.88611,22.1156 39.08972,21.811 25.88472,-0.3008 39.08986,-21.0589 39.08986,-21.0589 l 6.90264,10.2286 c 0,0 2.55097,3.4596 -2.40083,7.8218 -17.49403,15.4107 -31.35153,18.4395 -43.59153,18.3513 -18.07709,-0.9893 -32.65792,-7.1067 -43.74153,-18.3513 -1.99361,-1.6576 -2.40097,-3.8357 -1.80069,-5.6408 z"
       inkscape:connector-curvature="0" />
    <path
       id="path84"
       stroke-miterlimit="3.86369991"
       d="m 154.68681,3881.9808 c 0,0 -0.78778,-4.4748 6.26486,-0.8647 l 0.52514,-14.5158"
       inkscape:connector-curvature="0"
       style="fill:none;stroke:#002d56;stroke-width:0.88429165;stroke-miterlimit:3.86369991" />
    <path
       id="path86"
       stroke-miterlimit="3.86369991"
       d="m 246.97167,3878.9349 c -2.25083,-4.851 -6.3775,1.0904 -6.3775,1.0904 l -1.03903,-12.6728"
       inkscape:connector-curvature="0"
       style="fill:none;stroke:#002d56;stroke-width:0.88429165;stroke-miterlimit:3.86369991" />
    <path
       id="path88"
       stroke-miterlimit="3.86369991"
       d="m 131.09292,3865.5356 h 139.85333 c 0.49722,0 0.90028,0.4204 0.90028,0.939 v 0.3128 c 0,0.5186 -0.40306,0.939 -0.90028,0.939 H 131.09292 c -0.49722,0 -0.90028,-0.4204 -0.90028,-0.939 v -0.3128 c -1.4e-4,-0.5186 0.40306,-0.939 0.90028,-0.939 z"
       inkscape:connector-curvature="0"
       style="fill:#eed000;stroke:#002d56;stroke-width:0.69444448;stroke-miterlimit:3.86369991" />
    <path
       id="path90"
       d="m 143.45472,3867.9082 c 0.0228,-0.01 0.0357,-0.012 0.0365,-0.012 0.009,0 1.39458,0.4957 1.40639,2.6662 1.22625,-0.2297 1.72125,0.418 1.485,1.9427 0,0 -1.45583,-0.3936 -1.69347,0.4365 -0.35695,0.9597 -0.0847,1.7415 0.81653,2.3456 0,0 1.51388,1.1997 2.46652,-1.0743 0.95264,-2.2741 1.29556,-3.0475 1.29556,-3.0475 0.26486,-0.8378 1.84222,-2.8011 3.27472,-3.0763 0.5457,-0.2187 1.06806,-0.1755 1.65083,-0.036 0,0 1.25334,0.2712 1.28889,1.3186 0.0356,1.0473 -0.39208,1.503 -1.09875,1.8069 -0.78139,0.336 -1.74625,-0.3851 -1.74625,-0.3851 -0.33639,-0.063 -0.44389,0.053 -0.65041,0.1968 -0.0951,0.066 -0.49181,0.5014 -0.72167,0.9915 0,0 -0.69569,1.4706 -1.0275,2.5938 -0.26139,0.8844 -0.8375,3.5595 -3.54597,3.9611 h -6.39195 c -2.70847,-0.4016 -3.28458,-3.0767 -3.54597,-3.9611 -0.3318,-1.1232 -1.0275,-2.5938 -1.0275,-2.5938 -0.22986,-0.4901 -0.62653,-0.9255 -0.72167,-0.9915 -0.20652,-0.1432 -0.31402,-0.2596 -0.65041,-0.1968 0,0 -0.965,0.7211 -1.74625,0.3851 -0.70681,-0.3039 -1.13445,-0.7596 -1.09889,-1.8069 0.0357,-1.0472 1.28903,-1.3186 1.28903,-1.3186 0.58277,-0.1392 1.10514,-0.1825 1.65083,0.036 1.43236,0.2752 3.00972,2.2385 3.27458,3.0763 0,0 0.34292,0.7734 1.29556,3.0475 0.95264,2.274 2.46653,1.0743 2.46653,1.0743 0.90125,-0.6041 1.17333,-1.386 0.81652,-2.3456 -0.23763,-0.8303 -1.69347,-0.4365 -1.69347,-0.4365 -0.23625,-1.5247 0.25875,-2.1722 1.48486,-1.9427 0.012,-2.1705 1.3975,-2.6697 1.40653,-2.6662 0.001,0 0.0137,0 0.0365,0.012 z"
       inkscape:connector-curvature="0"
       style="fill:#eed000;stroke-width:0.1388889" />
    <path
       id="path92"
       stroke-miterlimit="3.86369991"
       d="m 151.23208,3941.1056 h -15.47319 l 2.05778,-60.3718 h 11.42986 z"
       inkscape:connector-curvature="0"
       style="fill:#eed000;fill-rule:evenodd;stroke:#002d56;stroke-width:1.17904174;stroke-miterlimit:3.86369991" />
    <path
       id="path94"
       stroke-miterlimit="3.86369991"
       d="M 151.71111,3974.6772 H 135.28 l -1.4e-4,-27.4155 16.43125,-0.01 z"
       inkscape:connector-curvature="0"
       style="fill:#eed000;fill-rule:evenodd;stroke:#002d56;stroke-width:1.17904174;stroke-miterlimit:3.86369991" />
    <path
       id="path96"
       stroke-miterlimit="3.86369991"
       d="m 135.16736,3944.1353 h 16.65639 c 1.16028,0 2.1007,0.7071 2.1007,1.5794 v 0 c 0,0.8724 -0.94056,1.5795 -2.1007,1.5795 h -16.65639 c -1.16014,0 -2.10069,-0.7071 -2.10069,-1.5795 v 0 c -1.4e-4,-0.8723 0.94041,-1.5794 2.10069,-1.5794 z"
       inkscape:connector-curvature="0"
       style="fill:#eed000;fill-rule:evenodd;stroke:#002d56;stroke-width:1.17904174;stroke-miterlimit:3.86369991" />
    <path
       id="path98"
       stroke-miterlimit="3.86369991"
       d="m 136.22556,3941.1719 h 14.54 c 1.03305,0 1.87055,0.6634 1.87055,1.4817 v 0 c 0,0.8183 -0.8375,1.4817 -1.87055,1.4817 h -14.54 c -1.03306,0 -1.87056,-0.6634 -1.87056,-1.4817 v 0 c 0,-0.8183 0.8375,-1.4817 1.87056,-1.4817 z"
       inkscape:connector-curvature="0"
       style="fill:#eed000;fill-rule:evenodd;stroke:#002d56;stroke-width:1.17904174;stroke-miterlimit:3.86369991" />
    <path
       id="path100"
       stroke-miterlimit="3.86369991"
       d="m 139.10639,3952.3969 h 8.77833 v 18.0747 h -8.77833 z"
       inkscape:connector-curvature="0"
       style="fill:none;stroke:#002d56;stroke-width:1.17904174;stroke-miterlimit:3.86369991" />
    <path
       id="path102"
       stroke-miterlimit="3.86369991"
       d="m 138.45361,3878.8592 h 10.08389 c 0.82875,0 1.50056,0.4882 1.50056,1.0905 0,0.6022 -0.67181,1.0906 -1.50056,1.0906 h -10.08389 c -0.82875,0 -1.50055,-0.4882 -1.50055,-1.0906 0,-0.6022 0.6718,-1.0905 1.50055,-1.0905 z"
       inkscape:connector-curvature="0"
       style="fill:#eed000;stroke:#002d56;stroke-width:0.68054169;stroke-miterlimit:3.86369991" />
    <path
       id="path104"
       stroke-miterlimit="3.86369991"
       d="M 131.79111,3974.7468 H 155.2 v 3.1589 h -23.40889 z"
       inkscape:connector-curvature="0"
       style="fill:#eed000;fill-rule:evenodd;stroke:#002d56;stroke-width:0.56712502;stroke-miterlimit:3.86369991" />
    <path
       id="path106"
       d="m 258.1932,3868.0818 c 0.0228,-0.01 0.0357,-0.012 0.0365,-0.012 0.009,0 1.39473,0.4957 1.40653,2.6663 1.22625,-0.2298 1.72125,0.4179 1.48486,1.9426 0,0 -1.45583,-0.3936 -1.69347,0.4365 -0.35694,0.9597 -0.0847,1.7416 0.81653,2.3456 0,0 1.51389,1.1997 2.46653,-1.0743 0.95264,-2.2741 1.29555,-3.0475 1.29555,-3.0475 0.265,-0.8378 1.84222,-2.8011 3.27472,-3.0763 0.5457,-0.2187 1.06806,-0.1755 1.65084,-0.036 0,0 1.25333,0.2712 1.28889,1.3186 0.0357,1.0472 -0.39195,1.503 -1.09889,1.8069 -0.78125,0.336 -1.74625,-0.3851 -1.74625,-0.3851 -0.33639,-0.063 -0.44375,0.053 -0.65042,0.1968 -0.0951,0.066 -0.4918,0.5014 -0.72167,0.9915 0,0 -0.69569,1.4706 -1.0275,2.5938 -0.26138,0.8844 -0.8375,3.5596 -3.54597,3.9611 h -6.39194 c -2.70847,-0.4015 -3.28459,-3.0767 -3.54597,-3.9611 -0.33195,-1.1232 -1.02764,-2.5938 -1.02764,-2.5938 -0.22986,-0.4901 -0.62639,-0.9255 -0.72167,-0.9915 -0.20653,-0.1432 -0.31403,-0.2596 -0.65042,-0.1968 0,0 -0.965,0.7211 -1.74639,0.3851 -0.7068,-0.3039 -1.13444,-0.7596 -1.09875,-1.8069 0.0357,-1.0474 1.28903,-1.3186 1.28903,-1.3186 0.58278,-0.1392 1.10514,-0.1825 1.65084,0.036 1.43236,0.2752 3.00972,2.2385 3.27472,3.0763 0,0 0.34291,0.7734 1.29555,3.0475 0.9525,2.274 2.46653,1.0743 2.46653,1.0743 0.90111,-0.604 1.17333,-1.386 0.81639,-2.3456 -0.2375,-0.8303 -1.69347,-0.4365 -1.69347,-0.4365 -0.23625,-1.5247 0.25861,-2.1722 1.48486,-1.9426 0.0118,-2.1706 1.3975,-2.6698 1.40639,-2.6663 10e-4,0 0.0137,0 0.0365,0.012 z"
       inkscape:connector-curvature="0"
       style="fill:#eed000;stroke-width:0.1388889" />
    <path
       id="path108"
       stroke-miterlimit="3.86369991"
       d="m 266.26417,3941.1056 h -15.4732 l 2.05764,-60.3718 h 11.43 z"
       inkscape:connector-curvature="0"
       style="fill:#eed000;fill-rule:evenodd;stroke:#002d56;stroke-width:1.17904174;stroke-miterlimit:3.86369991" />
    <path
       id="path110"
       stroke-miterlimit="3.86369991"
       d="m 267.11861,3974.6772 h -16.43125 l -0.17333,-27.4155 16.60458,-0.01 z"
       inkscape:connector-curvature="0"
       style="fill:#eed000;fill-rule:evenodd;stroke:#002d56;stroke-width:1.17904174;stroke-miterlimit:3.86369991" />
    <path
       id="path112"
       stroke-miterlimit="3.86369991"
       d="m 250.53556,3944.1353 h 16.65639 c 1.16027,0 2.10069,0.7071 2.10069,1.5794 0,0.8724 -0.94055,1.5795 -2.10069,1.5795 h -16.65639 c -1.16028,0 -2.1007,-0.7071 -2.1007,-1.5795 0,-0.8723 0.94042,-1.5794 2.1007,-1.5794 z"
       inkscape:connector-curvature="0"
       style="fill:#eed000;stroke:#002d56;stroke-width:1.17904174;stroke-miterlimit:3.86369991" />
    <path
       id="path114"
       stroke-miterlimit="3.86369991"
       d="m 251.38167,3941.1719 h 14.54 c 1.03305,0 1.87055,0.6634 1.87055,1.4817 v 0 c 0,0.8183 -0.8375,1.4817 -1.87055,1.4817 h -14.54 c -1.03306,0 -1.87056,-0.6634 -1.87056,-1.4817 v 0 c 0,-0.8183 0.83736,-1.4817 1.87056,-1.4817 z"
       inkscape:connector-curvature="0"
       style="fill:#eed000;fill-rule:evenodd;stroke:#002d56;stroke-width:1.17904174;stroke-miterlimit:3.86369991" />
    <path
       id="path116"
       stroke-miterlimit="3.86369991"
       d="m 254.36222,3952.3969 h 8.77834 v 18.0747 h -8.77834 z"
       inkscape:connector-curvature="0"
       style="fill:none;stroke:#002d56;stroke-width:1.17904174;stroke-miterlimit:3.86369991" />
    <path
       id="path118"
       stroke-miterlimit="3.86369991"
       d="m 253.40806,3878.6279 h 10.08389 c 0.82875,0 1.50055,0.4882 1.50055,1.0906 0,0.6022 -0.6718,1.0904 -1.50055,1.0904 h -10.08389 c -0.82875,0 -1.50056,-0.4882 -1.50056,-1.0904 0,-0.6022 0.67181,-1.0906 1.50056,-1.0906 z"
       inkscape:connector-curvature="0"
       style="fill:#eed000;stroke:#002d56;stroke-width:0.68054169;stroke-miterlimit:3.86369991" />
    <path
       id="path120"
       stroke-miterlimit="3.86369991"
       d="m 187.98681,3974.7468 h 23.40889 v 3.1589 h -23.40889 z"
       inkscape:connector-curvature="0"
       style="fill:#eed000;fill-rule:evenodd;stroke:#002d56;stroke-width:0.56712502;stroke-miterlimit:3.86369991" />
    <path
       id="path122"
       stroke-miterlimit="3.86369991"
       d="m 101.08195,3931.9408 c -3.976533,-2.858 -8.17806,-2.1058 -8.17806,-2.1058 0,0 3.03625,-4.0431 7.87792,-2.0307 3.07611,1.2786 5.70222,6.0168 13.50514,1.0529 7.80291,-4.9639 10.83138,-7.4719 17.70666,-9.7773 7.06403,-2.3686 12.60472,-2.858 14.25542,-3.4596 1.65055,-0.6017 4.23333,-1.5446 5.55208,-9.4765 0.30014,-1.8052 7.50278,15.042 7.50278,15.042 0,0 -1.05042,5.5656 -7.95306,8.7245 -6.90263,3.1589 -18.86263,5.0485 -25.50958,10.379 -2.25083,1.805 -6.57597,4.926 -9.19097,8.7621 -6.15236,9.0251 -12.56722,10.0405 -12.56722,10.0405 0,0 5.81666,-5.0941 7.42777,-11.9584 0.30014,-1.2786 -0.19041,-7.0295 2.10084,-9.3261 -2.43292,2.4389 -8.59278,-2.3664 -7.80292,-1.7299 0,0 -0.75028,-1.2787 -4.7268,-4.1367 z"
       inkscape:connector-curvature="0"
       style="fill:#eed000;fill-rule:evenodd;stroke:#002d56;stroke-width:1.03166664;stroke-miterlimit:3.86369991" />
    <path
       id="path124"
       stroke-miterlimit="3.86369991"
       d="m 250.01334,3906.2883 c 0,0 1.20041,6.8442 14.63055,10.3039 13.43014,3.4597 15.53097,7.822 17.70681,8.8749 2.17583,1.0529 7.8293,5.1071 13.88027,3.0836 2.38389,-0.7972 9.04528,-2.6325 9.58903,-2.2246 0.20389,0.3399 -1.90319,3.8745 -2.16125,4.1802 -4.45597,5.28 -6.15236,6.092 -7.80291,6.9193 -3.605,1.8069 -3.88362,2.0262 -6.45237,2.1811 0,0 2.40084,3.0084 2.77598,7.8971 0.37514,4.8886 6.90264,9.8525 6.90264,9.8525 0,0 -8.70334,-2.2563 -12.52973,-7.4459 -3.82652,-5.1896 -10.12875,-9.6269 -12.45472,-10.7551 -2.32583,-1.1282 -14.18028,-5.1896 -16.65625,-6.1672 -2.47597,-0.9778 -10.20389,-5.0391 -11.2543,-11.5824 -1.0507,-6.5433 3.82625,-15.1174 3.82625,-15.1174 z"
       inkscape:connector-curvature="0"
       style="fill:#eed000;fill-rule:evenodd;stroke:#002d56;stroke-width:1.03166664;stroke-miterlimit:3.86369991" />
    <path
       id="path126"
       stroke-miterlimit="3.86369991"
       d="m 122.68153,3911.5517 c -9.11597,-3.5725 -6.30097,-5.9838 -6.30097,-5.9838 2.24305,-4.0104 5.18152,-9.0478 16.28847,-13.3212 14.85555,-5.716 30.01139,-3.1588 25.95986,3.4597 -2.46306,4.0235 -6.715,11.056 -6.715,11.056 0,0 -1.76319,-4.7382 -9.86625,-1.7299 -8.10306,3.0085 -10.60444,4.2832 -11.08514,5.8733 -0.75028,2.482 -0.45014,4.0614 5.40208,3.1589 -3.82652,1.2786 -8.08944,-0.055 -12.87555,-2.185 z"
       inkscape:connector-curvature="0"
       style="fill:#eed000;stroke:#002d56;stroke-width:1.03166664;stroke-miterlimit:3.86369991" />
    <path
       id="path128"
       stroke-miterlimit="3.86369991"
       d="m 261.60514,3904.8067 c 1.68472,0.434 4.56042,1.8297 6.25556,3.0471 8.25889,5.9312 6.73833,11.1055 4.44875,11.2406 -2.55098,0.1505 16.19347,-0.3737 18.4443,-1.577 2.25084,-1.2034 3.00111,-2.5573 1.6507,-5.4152 -1.35042,-2.8579 -11.55431,-20.3068 -28.2107,-23.6161 -16.65639,-3.3092 -23.2568,3.7138 -21.83319,6.0921 1.35041,2.2562 7.50278,9.7772 7.72778,12.8608 1.70847,-3.2269 5.55166,-4.1462 11.5168,-2.6323 z"
       inkscape:connector-curvature="0"
       style="fill:#eed000;stroke:#002d56;stroke-width:0.88431942;stroke-linejoin:round;stroke-miterlimit:3.86369991" />
    <g
       transform="matrix(0.13888889,0,0,0.13888889,0,3720)"
       id="g202"
       style="fill-rule:evenodd">
      <path
         id="path130"
         transform="translate(0,-1120.464)"
         d="m 1826.076,2427.804 -23.147,-33.257 6.029,36.129 -9.291,1.559 -10.505,-62.956 9.963,-1.671 30.066,42.09 15.12,-49.67 8.816,-1.479 10.505,62.955 -12.295,2.063 -6.028,-36.13 -12.276,39.2 z"
         inkscape:connector-curvature="0"
         style="fill:#002d56" />
      <path
         id="path132"
         d="m 1921.643,1283.214 c -2.002,9.865 -5.758,16.942 -11.262,21.229 -5.501,4.26 -11.903,5.643 -19.209,4.154 -7.227,-1.474 -12.555,-5.251 -15.984,-11.332 -3.423,-6.108 -4.147,-14.025 -2.173,-23.753 l 0.724,-3.565 c 1.84,-9.063 5.422,-16.03 10.746,-20.902 5.35,-4.865 12.058,-6.476 20.124,-4.831 7.881,1.608 13.249,5.724 16.104,12.35 2.88,6.631 3.417,14.396 1.612,23.293 z m -13.264,-3.569 0.345,-1.699 c 1.565,-7.71 2.097,-13.558 1.598,-17.545 -0.5,-3.987 -3.119,-6.464 -7.858,-7.43 -4.373,-0.892 -7.616,0.173 -9.729,3.195 -2.087,3.028 -3.997,8.811 -5.73,17.35 l -0.312,1.534 c -1.745,8.594 -2.302,14.625 -1.668,18.092 0.632,3.468 3.278,5.676 7.94,6.627 3.822,0.78 6.936,-0.384 9.339,-3.491 2.428,-3.102 4.454,-8.646 6.075,-16.633 z"
         inkscape:connector-curvature="0"
         style="fill:#002d56" />
      <path
         id="path134"
         d="m 1972.808,1310.829 c -4.927,9.096 -10.3,14.916 -16.116,17.46 -5.796,2.558 -12.038,2.015 -18.731,-1.628 l -19.48,-10.604 30.384,-56.097 17.472,9.511 c 7.984,4.346 12.382,9.869 13.193,16.569 0.848,6.688 -0.983,14.194 -5.494,22.522 z m -11.846,-6.93 0.826,-1.524 c 3.329,-6.146 4.862,-11.393 4.602,-15.739 -0.262,-4.345 -2.131,-7.464 -5.605,-9.357 l -4.474,-2.435 -21.323,39.368 5.495,2.991 c 3.405,1.854 6.669,1.946 9.793,0.277 3.137,-1.693 6.698,-6.22 10.686,-13.581 z"
         inkscape:connector-curvature="0"
         style="fill:#002d56" />
      <path
         id="path136"
         transform="translate(0,-1120.464)"
         d="m 2007.499,2433.925 -11.979,12.221 12.837,12.648 -6.744,6.88 -12.838,-12.648 -12.6,12.854 17.698,17.438 -6.655,6.789 -27.42,-27.016 44.635,-45.533 26.247,25.86 -6.655,6.789 z"
         inkscape:connector-curvature="0"
         style="fill:#002d56" />
      <path
         id="path138"
         d="m 2013.864,1414.385 -6.835,-11.635 c 8.792,-5.317 14.631,-9.853 17.519,-13.61 2.923,-3.748 3.422,-7.26 1.497,-10.539 l -1.628,-2.77 -24.651,14.556 -6.917,-11.773 54.864,-32.398 12.084,20.568 c 2.943,5.009 3.884,9.225 2.827,12.649 -1.045,3.446 -3.228,6.149 -6.547,8.111 l -2.982,1.76 c -3.127,1.846 -6.171,2.416 -9.133,1.709 -2.962,-0.708 -5.685,-2.784 -8.166,-6.231 1.129,4.867 0.079,9.638 -3.149,14.312 -3.19,4.684 -9.451,9.781 -18.783,15.291 z m 31.291,-36.014 1.49,-0.88 c 2.375,-1.402 3.718,-3.004 4.032,-4.806 0.313,-1.802 -0.222,-3.88 -1.606,-6.234 l -2.258,-3.844 -14.507,8.567 1.871,3.186 c 1.641,2.793 3.346,4.475 5.119,5.046 1.772,0.569 3.724,0.224 5.859,-1.035 z"
         inkscape:connector-curvature="0"
         style="fill:#002d56" />
      <path
         id="path140"
         d="m 1841.604,1493.168 -11.285,-8.22 5.378,-15.01 -16.149,-11.763 -12.675,9.696 -8.983,-6.543 53.898,-39.643 10.28,7.488 z m -2.834,-32.392 7.733,-23.387 -19.407,14.884 z"
         inkscape:connector-curvature="0"
         style="fill:#002d56" />
      <path
         id="path142"
         transform="translate(0,-1120.464)"
         d="m 1912.48,2587.121 -11.816,-5.779 -23.75,48.818 -12.249,-5.99 23.75,-48.817 -12.105,-5.92 4.161,-8.554 36.172,17.687 z"
         inkscape:connector-curvature="0"
         style="fill:#002d56" />
      <path
         id="path144"
         transform="translate(0,-1120.464)"
         d="m 1941.718,2588.371 -24.878,58.758 -12.545,-5.339 24.878,-58.758 z"
         inkscape:connector-curvature="0"
         style="fill:#002d56" />
      <path
         id="path146"
         d="m 1989.973,1526.255 c -4.085,9.198 -9.279,15.292 -15.579,18.282 -6.291,2.966 -12.839,2.927 -19.651,-0.113 -6.738,-3.008 -11.124,-7.851 -13.159,-14.533 -2.024,-6.706 -1.022,-14.594 3.005,-23.663 l 1.476,-3.323 c 3.752,-8.45 8.753,-14.474 15.004,-18.076 6.274,-3.59 13.171,-3.706 20.69,-0.35 7.348,3.28 11.7,8.464 13.057,15.553 1.38,7.099 0.229,14.797 -3.454,23.092 z m -12.181,-6.363 0.704,-1.584 c 3.192,-7.188 4.975,-12.782 5.348,-16.783 0.373,-4.001 -1.651,-6.988 -6.069,-8.96 -4.077,-1.82 -7.474,-1.484 -10.189,1.009 -2.691,2.503 -5.805,7.735 -9.34,15.696 l -0.635,1.43 c -3.559,8.013 -5.404,13.78 -5.534,17.302 -0.132,3.523 1.975,6.253 6.322,8.193 3.563,1.591 6.854,1.131 9.872,-1.381 3.041,-2.502 6.215,-7.475 9.521,-14.922 z"
         inkscape:connector-curvature="0"
         style="fill:#002d56" />
      <path
         id="path148"
         transform="translate(0,-1120.464)"
         d="m 2032.514,2673.607 18.84,-32.715 8.4,4.863 -31.835,55.281 -5.068,-2.934 -6.209,-49.899 -20.001,34.729 -8.4,-4.863 31.835,-55.281 6.318,3.657 z"
         inkscape:connector-curvature="0"
         style="fill:#002d56" />
      <path
         id="path150"
         transform="translate(0,-1120.464)"
         d="m 944.877,2462.19 -8.452,5.091 -47.121,-46.084 11.819,-7.12 29.778,29.241 -10.503,-40.852 8.281,-4.988 31.117,28.433 -12.323,-39.755 9.449,-5.692 18.431,63.367 -8.452,5.092 -32.254,-29.082 z"
         inkscape:connector-curvature="0"
         style="fill:#002d56" />
      <path
         id="path152"
         transform="translate(0,-1120.464)"
         d="m 992.027,2371.815 18.616,61.043 -13.033,3.995 -18.616,-61.043 z"
         inkscape:connector-curvature="0"
         style="fill:#002d56" />
      <path
         id="path154"
         d="m 1065.244,1283.929 c 0.94,6.703 -0.483,11.958 -4.266,15.766 -3.789,3.781 -9.453,6.202 -16.995,7.264 -4.314,0.608 -7.99,0.854 -11.028,0.742 -3.039,-0.113 -5.58,-0.438 -7.625,-0.976 l -1.527,-10.892 c 1.646,0.765 4.141,1.339 7.487,1.722 3.341,0.355 6.573,0.313 9.697,-0.128 4.393,-0.618 7.323,-1.657 8.792,-3.118 1.495,-1.463 2.043,-3.619 1.643,-6.469 -0.258,-1.843 -1.083,-3.393 -2.473,-4.649 -1.391,-1.257 -5.043,-2.664 -10.955,-4.224 -4.712,-1.272 -8.492,-3.202 -11.337,-5.793 -2.85,-2.616 -4.631,-6.467 -5.343,-11.55 -0.681,-4.859 0.701,-9.24 4.148,-13.143 3.472,-3.907 8.676,-6.348 15.61,-7.326 3.36,-0.473 6.418,-0.605 9.174,-0.395 2.778,0.179 4.74,0.415 5.888,0.708 l 1.351,9.635 c -2.359,-0.266 -4.693,-0.463 -7.005,-0.594 -2.313,-0.129 -4.738,-0.01 -7.279,0.342 -3.6,0.507 -6.11,1.459 -7.534,2.855 -1.423,1.397 -2.012,2.975 -1.765,4.734 0.313,2.235 1.146,3.841 2.497,4.817 1.352,0.978 5.082,2.176 11.19,3.592 5.688,1.307 9.893,3.391 12.616,6.253 2.744,2.835 4.424,6.443 5.039,10.827 z"
         inkscape:connector-curvature="0"
         style="fill:#002d56" />
      <path
         id="path156"
         d="m 1262.309,1240.531 c -1.954,3.845 -4.823,6.479 -8.605,7.902 -3.747,1.41 -8.083,0.856 -13.013,-1.661 -2.882,-1.472 -5.101,-2.86 -6.658,-4.161 -1.535,-1.29 -2.689,-2.559 -3.462,-3.81 l 4.425,-8.707 c 0.724,0.877 1.752,1.892 3.085,3.048 1.368,1.143 2.827,2.109 4.375,2.9 1.476,0.754 2.966,0.978 4.473,0.671 1.506,-0.307 2.77,-1.466 3.792,-3.476 l 21.649,-42.594 12.144,6.203 z"
         inkscape:connector-curvature="0"
         style="fill:#002d56" />
      <path
         id="path158"
         d="m 1331.491,1266.041 c -2.148,5.608 -5.468,9.377 -9.955,11.306 -4.479,1.902 -10.149,1.534 -17.008,-1.105 -7.36,-2.831 -11.997,-6.563 -13.914,-11.198 -1.917,-4.635 -1.595,-10.295 0.967,-16.983 l 15.356,-40.087 12.723,4.894 -15.977,41.707 c -1.24,3.239 -1.489,5.938 -0.741,8.098 0.781,2.144 2.881,3.873 6.299,5.188 3.168,1.219 5.79,1.397 7.867,0.534 2.101,-0.853 3.867,-3.149 5.301,-6.888 l 15.886,-41.47 9.43,3.627 z"
         inkscape:connector-curvature="0"
         style="fill:#002d56" />
      <path
         id="path160"
         d="m 1398.845,1279.804 c -0.823,6.718 -3.554,11.425 -8.191,14.122 -4.636,2.668 -10.732,3.538 -18.292,2.607 -4.324,-0.532 -7.938,-1.248 -10.844,-2.145 -2.906,-0.897 -5.277,-1.871 -7.114,-2.922 l 1.337,-10.917 c 1.392,1.166 3.654,2.368 6.787,3.606 3.136,1.21 6.269,2.008 9.4,2.393 4.403,0.542 7.502,0.299 9.298,-0.731 1.822,-1.025 2.907,-2.965 3.258,-5.822 0.226,-1.848 -0.17,-3.559 -1.189,-5.133 -1.019,-1.574 -4.183,-3.882 -9.491,-6.922 -4.223,-2.451 -7.375,-5.296 -9.455,-8.537 -2.077,-3.267 -2.804,-7.448 -2.18,-12.543 0.597,-4.871 3.063,-8.744 7.4,-11.619 4.363,-2.873 10.019,-3.881 16.97,-3.026 3.368,0.415 6.356,1.081 8.963,1.999 2.637,0.893 4.471,1.631 5.504,2.212 l -1.183,9.657 c -2.209,-0.868 -4.414,-1.665 -6.613,-2.391 -2.2,-0.725 -4.573,-1.243 -7.119,-1.558 -3.608,-0.444 -6.279,-0.176 -8.014,0.803 -1.735,0.98 -2.711,2.352 -2.927,4.115 -0.274,2.24 0.115,4.007 1.168,5.301 1.053,1.295 4.347,3.42 9.881,6.374 5.157,2.738 8.681,5.842 10.572,9.314 1.921,3.447 2.612,7.368 2.074,11.763 z"
         inkscape:connector-curvature="0"
         style="fill:#002d56" />
      <path
         id="path162"
         transform="translate(0,-1120.464)"
         d="m 1461.621,2368.563 -13.146,-0.229 -0.947,54.306 -13.626,-0.238 0.947,-54.306 -13.466,-0.236 0.166,-9.516 40.238,0.703 z"
         inkscape:connector-curvature="0"
         style="fill:#002d56" />
      <path
         id="path164"
         transform="translate(0,-1120.464)"
         d="m 1498.802,2355.497 7.758,63.358 -13.527,1.665 -7.758,-63.357 z"
         inkscape:connector-curvature="0"
         style="fill:#002d56" />
      <path
         id="path166"
         d="m 1575.005,1279.406 c -0.706,0.895 -2.148,1.985 -4.325,3.272 -2.171,1.313 -4.802,2.443 -7.893,3.392 -7.795,2.389 -14.932,1.804 -21.41,-1.756 -6.461,-3.594 -11.193,-10.313 -14.196,-20.157 l -0.753,-2.468 c -2.797,-9.17 -2.551,-17.296 0.738,-24.379 3.314,-7.09 8.741,-11.79 16.28,-14.102 3.245,-0.994 6.015,-1.622 8.312,-1.884 2.287,-0.288 4.13,-0.292 5.529,-0.01 l 2.961,9.709 c -1.289,-0.282 -2.952,-0.377 -4.991,-0.284 -2.015,0.09 -4.286,0.517 -6.816,1.292 -4.703,1.441 -7.795,4.498 -9.276,9.168 -1.457,4.664 -1.147,10.393 0.926,17.19 l 0.259,0.85 c 2.221,7.282 5.089,12.287 8.603,15.014 3.54,2.72 7.444,3.426 11.712,2.118 2.887,-0.885 5.263,-1.936 7.127,-3.157 1.855,-1.246 3.301,-2.323 4.338,-3.231 z"
         inkscape:connector-curvature="0"
         style="fill:#002d56" />
      <path
         id="path168"
         transform="translate(0,-1120.464)"
         d="m 1593.88,2332.235 7.758,15.265 16.036,-8.192 4.368,8.594 -16.037,8.191 8.161,16.057 22.107,-11.293 4.31,8.48 -34.25,17.496 -28.907,-56.875 32.787,-16.748 4.31,8.48 z"
         inkscape:connector-curvature="0"
         style="fill:#002d56" />
      <path
         id="path170"
         d="m 922.566,1515.702 c 5.008,9.055 7.019,16.725 6.037,23.01 -0.96,6.275 -4.77,11.26 -11.43,14.96 l -19.385,10.769 -30.885,-55.839 17.387,-9.658 c 7.945,-4.414 14.954,-5.163 21.028,-2.248 6.083,2.878 11.416,8.461 16.001,16.75 z m -12.193,6.29 -0.839,-1.517 c -3.383,-6.117 -6.975,-10.234 -10.772,-12.35 -3.797,-2.114 -7.425,-2.211 -10.884,-0.291 l -4.452,2.473 21.675,39.188 5.469,-3.038 c 3.388,-1.882 5.219,-4.592 5.493,-8.131 0.259,-3.562 -1.638,-9.005 -5.69,-16.334 z"
         inkscape:connector-curvature="0"
         style="fill:#002d56" />
      <path
         id="path172"
         d="m 980.029,1491.701 c 3.924,9.269 4.828,17.234 2.713,23.894 -2.127,6.636 -6.622,11.411 -13.485,14.333 -6.79,2.89 -13.316,2.803 -19.578,-0.263 -6.273,-3.09 -11.344,-9.205 -15.214,-18.344 l -1.418,-3.349 c -3.605,-8.515 -4.59,-16.292 -2.954,-23.332 1.66,-7.049 6.279,-12.186 13.857,-15.41 7.405,-3.151 14.155,-2.807 20.253,1.033 6.121,3.83 10.951,9.925 14.492,18.284 z m -12.95,4.592 -0.676,-1.597 c -3.067,-7.244 -5.933,-12.366 -8.598,-15.369 -2.665,-3.002 -6.224,-3.556 -10.676,-1.661 -4.109,1.748 -6.18,4.468 -6.214,8.159 -0.009,3.681 1.684,9.532 5.081,17.555 l 0.61,1.441 c 3.419,8.074 6.368,13.362 8.849,15.859 2.48,2.499 5.91,2.817 10.289,0.953 3.591,-1.528 5.5,-4.255 5.725,-8.181 0.251,-3.935 -1.213,-9.655 -4.39,-17.159 z"
         inkscape:connector-curvature="0"
         style="fill:#002d56" />
      <path
         id="path174"
         transform="translate(0,-1120.464)"
         d="m 1030.197,2628.326 -28.807,-28.473 12.498,34.424 -8.852,3.23 -21.777,-59.983 9.492,-3.464 37.217,35.893 5.836,-51.603 8.4,-3.065 21.777,59.984 -11.715,4.274 -12.497,-34.424 -4.942,40.788 z"
         inkscape:connector-curvature="0"
         style="fill:#002d56" />
      <path
         id="path176"
         d="m 1114.145,876.087 c -0.038,1.311 -0.615,3.334 -1.728,6.068 -1.088,2.754 -2.719,5.681 -4.889,8.783 -5.475,7.82 -12.354,12.516 -20.639,14.089 -8.292,1.529 -17.116,-0.982 -26.474,-7.534 l -2.346,-1.642 c -8.716,-6.103 -13.964,-13.503 -15.745,-22.2 -1.762,-8.722 0,-16.864 5.299,-24.428 2.28,-3.255 4.374,-5.838 6.285,-7.748 1.885,-1.927 3.556,-3.279 5.016,-4.053 l 9.229,6.462 c -1.361,0.691 -2.937,1.823 -4.727,3.395 -1.772,1.549 -3.546,3.592 -5.323,6.13 -3.303,4.718 -4.055,9.693 -2.256,14.925 1.817,5.209 5.956,10.073 12.416,14.597 l 0.808,0.565 c 6.922,4.847 12.898,7.197 17.928,7.052 5.048,-0.171 9.071,-2.397 12.069,-6.678 2.028,-2.896 3.479,-5.567 4.351,-8.014 0.847,-2.462 1.435,-4.477 1.766,-6.042 z"
         inkscape:connector-curvature="0"
         style="fill:#002d56" />
      <path
         id="path178"
         d="m 1148.707,790.847 c 8.037,7.761 12.324,15.6 12.86,23.513 0.514,7.894 -2.263,14.978 -8.327,21.26 -6,6.213 -12.963,9.213 -20.891,8.997 -7.949,-0.237 -15.886,-4.182 -23.812,-11.835 l -2.904,-2.804 c -7.384,-7.13 -11.677,-14.735 -12.882,-22.815 -1.182,-8.102 1.575,-15.62 8.271,-22.554 6.543,-6.776 13.853,-9.615 21.929,-8.517 8.097,1.077 15.77,5.115 23.02,12.114 z m -11.828,10.897 -1.385,-1.337 c -6.281,-6.066 -11.463,-10.025 -15.546,-11.88 -4.083,-1.854 -8.092,-0.744 -12.027,3.331 -3.631,3.76 -4.693,7.563 -3.187,11.41 1.527,3.824 5.769,9.095 12.726,15.813 l 1.249,1.207 c 7.002,6.761 12.341,10.853 16.017,12.27 3.677,1.419 7.449,0.125 11.32,-3.883 3.173,-3.286 4.061,-7.02 2.66,-11.201 -1.378,-4.203 -5.32,-9.447 -11.827,-15.73 z"
         inkscape:connector-curvature="0"
         style="fill:#002d56" />
      <path
         id="path180"
         transform="translate(0,-1120.464)"
         d="m 1211.849,1867.77 -24.641,-33.915 9.191,-6.678 41.638,57.31 -5.545,4.029 -54.832,-15.172 26.158,36.004 -9.191,6.678 -41.637,-57.31 6.912,-5.022 z"
         inkscape:connector-curvature="0"
         style="fill:#002d56" />
      <path
         id="path182"
         d="m 1300.082,711.411 c 3.175,6.807 3.253,12.9 0.236,18.278 -3.031,5.35 -8.587,9.909 -16.671,13.679 -4.624,2.156 -8.649,3.705 -12.077,4.647 -3.429,0.943 -6.369,1.486 -8.823,1.628 l -5.158,-11.062 c 2.08,0.239 5.048,-0.02 8.905,-0.786 3.843,-0.791 7.439,-1.967 10.787,-3.528 4.708,-2.195 7.65,-4.327 8.827,-6.396 1.205,-2.08 1.134,-4.567 -0.216,-7.461 -0.873,-1.872 -2.285,-3.234 -4.236,-4.085 -1.951,-0.852 -6.475,-1.073 -13.57,-0.665 -5.664,0.294 -10.496,-0.439 -14.494,-2.202 -4.012,-1.789 -7.221,-5.265 -9.628,-10.428 -2.302,-4.935 -2.148,-10.083 0.464,-15.445 2.638,-5.374 7.673,-9.794 15.105,-13.26 3.602,-1.679 6.974,-2.889 10.117,-3.63 3.158,-0.781 5.424,-1.216 6.798,-1.305 l 4.563,9.786 c -2.718,0.542 -5.387,1.149 -8.01,1.818 -2.623,0.671 -5.295,1.642 -8.018,2.91 -3.858,1.799 -6.359,3.691 -7.506,5.676 -1.147,1.985 -1.303,3.871 -0.47,5.658 1.059,2.27 2.497,3.688 4.315,4.255 1.819,0.568 6.364,0.539 13.633,-0.09 6.765,-0.599 12.121,0.149 16.068,2.245 3.963,2.056 6.982,5.31 9.059,9.763 z"
         inkscape:connector-curvature="0"
         style="fill:#002d56" />
      <path
         id="path184"
         transform="translate(0,-1120.464)"
         d="m 1361.373,1773.191 -14.873,3.985 15.6,58.223 -15.417,4.131 -15.6,-58.223 -15.236,4.083 -2.734,-10.203 45.526,-12.198 z"
         inkscape:connector-curvature="0"
         style="fill:#002d56" />
      <path
         id="path186"
         transform="rotate(-4.0023437)"
         d="m 1354.8711,733.32184 h 15.9616 v 70.84075 h -15.9616 z"
         inkscape:connector-curvature="0"
         style="fill:#002d56" />
      <path
         id="path188"
         transform="translate(0,-1120.464)"
         d="m 1503.997,1769.844 -15.361,-1.074 -4.205,60.129 -15.922,-1.113 4.205,-60.13 -15.734,-1.1 0.737,-10.536 47.016,3.288 z"
         inkscape:connector-curvature="0"
         style="fill:#002d56" />
      <path
         id="path190"
         d="m 1581.496,710.032 c -1.949,6.375 -5.438,10.773 -10.465,13.196 -5.019,2.393 -11.644,2.331 -19.874,-0.185 -8.83,-2.7 -14.583,-6.57 -17.264,-11.611 -2.68,-5.041 -2.859,-11.362 -0.534,-18.965 l 13.931,-45.566 15.263,4.667 -14.494,47.406 c -1.125,3.681 -1.15,6.702 -0.07,9.06 1.117,2.339 3.727,4.134 7.827,5.387 3.801,1.162 6.865,1.2 9.195,0.111 2.358,-1.079 4.186,-3.742 5.487,-7.993 l 14.411,-47.137 11.313,3.459 z"
         inkscape:connector-curvature="0"
         style="fill:#002d56" />
      <path
         id="path192"
         transform="translate(0,-1120.464)"
         d="m 1670.473,1826.049 -13.72,-6.991 -27.365,53.707 -14.221,-7.246 27.365,-53.707 -14.054,-7.161 4.795,-9.411 41.995,21.398 z"
         inkscape:connector-curvature="0"
         style="fill:#002d56" />
      <path
         id="path194"
         transform="rotate(36.001257)"
         d="m 1805.2531,-423.87817 h 15.9609 v 70.83864 h -15.9609 z"
         inkscape:connector-curvature="0"
         style="fill:#002d56" />
      <path
         id="path196"
         d="m 1771.74,821.838 c -7.9,7.9 -15.813,12.05 -23.734,12.448 -7.901,0.376 -14.936,-2.524 -21.112,-8.697 -6.108,-6.108 -8.985,-13.122 -8.631,-21.045 0.375,-7.944 4.458,-15.811 12.249,-23.601 l 2.854,-2.855 c 7.258,-7.258 14.937,-11.418 23.037,-12.481 8.121,-1.041 15.59,1.847 22.406,8.664 6.661,6.661 9.371,14.019 8.133,22.074 -1.218,8.077 -5.39,15.678 -12.514,22.805 z m -10.688,-12.017 1.361,-1.361 c 6.174,-6.174 10.224,-11.286 12.149,-15.336 1.925,-4.05 0.885,-8.077 -3.12,-12.083 -3.696,-3.696 -7.48,-4.824 -11.352,-3.385 -3.851,1.461 -9.195,5.61 -16.033,12.448 l -1.229,1.228 c -6.883,6.882 -11.066,12.149 -12.547,15.801 -1.483,3.651 -0.255,7.446 3.685,11.386 3.23,3.23 6.948,4.182 11.153,2.855 4.225,-1.306 9.536,-5.157 15.933,-11.553 z"
         inkscape:connector-curvature="0"
         style="fill:#002d56" />
      <path
         id="path198"
         transform="translate(0,-1120.464)"
         d="m 1815.699,2003.986 33.915,-24.64 6.678,9.191 -57.311,41.637 -4.028,-5.545 15.171,-54.832 -36.004,26.158 -6.677,-9.19 57.31,-41.638 5.021,6.912 z"
         inkscape:connector-curvature="0"
         style="fill:#002d56" />
      <path
         id="path200"
         stroke-miterlimit="3.86369991"
         d="m 1673.098,1398.951 c 0,0 3.906,-4.294 5.173,-1.16 1.267,3.134 1.536,5.806 0.452,6.977 -1.084,1.171 -0.955,1.911 -2.49,3.876 -1.534,1.965 -0.854,3.088 -2.335,4.033 -1.481,0.945 -2.161,0.519 -3.793,0.433 l -0.664,4.873 -1.062,4.073 0.612,3.918 2.784,6.23 -2.123,-4.669 2.972,5.094 c 2.25,5.935 23.638,11.897 31.387,15.364 16.131,7.216 13.608,41.517 15.307,44.913 1.698,3.396 8.489,48.816 8.489,56.457 0,7.641 -8.489,48.816 -9.338,57.306 -0.423,4.23 -1.479,14.363 -2.536,24.621 -0.209,2.027 -3.119,-0.638 -4.039,1.186 -1.219,2.418 -1.042,9.375 -0.753,11.677 -0.507,5.008 -1.932,8.902 -2.163,11.448 -0.849,9.339 -9.455,10.211 -9.455,10.211 0,0 -0.306,31.94 -2.004,39.58 -1.698,7.641 -2.853,9.096 -0.306,30.321 2.547,21.225 -3.396,47.543 -3.396,47.543 0,0 -8.767,38.694 -10.465,44.637 -1.698,5.943 1.126,11.396 1.975,15.64 0.849,4.245 0.849,11.037 0.849,11.037 h -74.647 c -1.898,0 1.311,-6.715 3.82,-11.461 1.162,-2.198 4.669,-5.518 9.763,-6.367 5.094,-0.849 5.518,-6.367 8.49,-13.159 2.971,-6.792 1.698,-21.224 -0.849,-30.139 -2.547,-8.915 -5.943,-30.563 -5.943,-38.204 0,-7.641 -4.213,-25.045 -8.458,-36.931 -4.245,-11.885 -6.367,-37.779 -6.367,-40.326 0,-1.111 -0.485,-2.545 -1.384,-4.796 -1.162,-2.908 -1.349,-7.181 -3.741,-13.882 -4.245,-11.885 -3.852,-26.318 -4.276,-38.628 -0.424,-12.31 -5.094,-25.894 -7.245,-28.904 l -1.313,-5.318 -13.092,4.083 -12.657,9.911 c -2.787,2.519 -5.826,2.939 -10.944,3.396 -9.909,0.885 -19.817,-10.743 -22.142,-27.55 -2.569,-18.578 1.101,-26.54 21.775,-26.476 l 9.187,0.02 7.984,0.266 H 1578 c 0,0 2.318,4.523 -1.288,6.119 -3.605,1.596 -4.635,1.862 -4.635,1.862 l 4.613,5.282 c -0.086,0.01 2.499,-1.738 10.188,-5.943 l 2.865,-6.686 c 0.212,-4.245 0.531,-5.2 -0.318,-9.869 -0.849,-4.669 -2.497,-31.513 -2.497,-37.88 0,-6.367 0.185,-13.9 0.833,-21.25 0.59,-6.686 0.5,-21.587 3.75,-27.917 4.032,-7.853 25.833,-11.25 25.833,-11.25 0,0 9.435,-1.033 10.708,-3.581 0.475,-0.949 2.845,-5.021 3.853,-6.611 -6.068,-2.154 -8.059,-9.613 -8.947,-11.429 -0.924,-1.889 -2.547,-10.613 -2.759,-11.461 -0.313,-1.253 -2.214,-9.138 -3.278,-12.261 -1.063,-3.123 -0.16,-8.814 -0.16,-8.814 l -6.905,-0.759 -8.351,-0.642 c 0,0 -4.669,-0.654 -5.871,-1.125 -1.202,-0.472 -5.249,-1.298 -5.249,-1.298 0,0 -6.634,-5.682 -0.055,-10.245 6.579,-4.563 14.313,-8.793 15.579,-9.545 1.266,-0.752 1.773,-2.002 1.773,-2.002 l -0.118,-1.642 c -1.514,-2.329 -2.985,-5.474 -4.876,-12.321 -1.89,-6.847 16.079,-9.705 16.079,-9.705 5.198,-0.446 22.627,1.861 20.833,1.465 3.639,0.804 6.019,0.674 12.974,0.63 6.955,-0.04 16.025,2.476 21.081,3.559 5.056,1.083 10.211,5.763 12.82,10.604 2.609,4.84 13.172,10.963 16.286,13.989 4.711,4.579 10.31,14.174 12.465,17.678 3.769,6.128 -0.296,4.665 -1.562,5.417 -5.89,3.496 -38.687,-3.9 -35.828,-3.545 2.348,0.292 1.797,-0.544 -0.74,-1.913 l -0.017,2.313 -1.91,7.216 z"
         inkscape:connector-curvature="0"
         style="fill:#eed000;stroke:#eed000;stroke-width:1.63329995;stroke-miterlimit:3.86369991" />
    </g>
    <path
       id="path204"
       stroke-miterlimit="3.86369991"
       d="m 227.53361,3927.0531 c 0.14459,-2.415 0.34292,-4.4055 0.7075,-5.9548 0.11792,-0.5011 0,-0.7369 0,-0.7369 -0.62777,-0.015 -1.05027,-0.063 -1.7,-0.814"
       inkscape:connector-curvature="0"
       style="fill:none;stroke:#002d56;stroke-width:0.56712502;stroke-miterlimit:3.86369991" />
    <path
       id="path206"
       stroke-miterlimit="3.86369991"
       d="m 223.55611,3953.3876 0.13875,-1.0007 c 0,0 0.31014,-0.572 0.19223,-1.6922 -0.11792,-1.1201 0,-4.2448 0.29486,-5.8366 0.27902,-1.5073 2.6443,-6.1905 2.88014,-7.4287 0.20347,-1.0679 0.23583,-4.6576 0.23583,-4.9523 0,-0.098 -0.11681,-0.4388 -0.059,-1.7688"
       inkscape:connector-curvature="0"
       style="fill:none;stroke:#002d56;stroke-width:0.68054169;stroke-miterlimit:3.86369991" />
    <path
       id="path208"
       d="m 221.57514,3941.0793 c 0.29875,0.4181 0.94722,2.3047 1.00625,4.0145 0.059,1.7097 -0.22708,3.7143 0.3625,5.365 0.33236,0.9306 0.58972,1.524 0.75111,1.928 0.12486,0.3125 0.65514,0.5118 0.65514,0.6661 0,0.3538 0.29472,3.9502 0.88431,5.6009 0.58958,1.6508 0.94333,4.068 0.94333,5.1293 0,1.0612 0.47167,4.068 0.82542,5.3061 0.35375,1.238 0.53055,3.2426 0.11791,4.1859 -0.41277,0.9434 -0.52847,1.526 -1.17916,1.8277 -0.50028,0.2319 -0.74389,0.3318 -1.13681,0.8105 -0.47292,0.5766 -1.01347,1.6656 -0.74986,1.6656 H 233.96 c 0,0 0,-0.9433 -0.11791,-1.5329 -0.11792,-0.5896 -0.82542,-1.415 -0.58959,-2.2404 0.23584,-0.8255 1.76875,-6.1316 1.76875,-6.1316 0,0 0.82542,-3.6552 0.47167,-6.6032 -0.35375,-2.9479 -0.47167,-2.9479 -0.23583,-4.009 0.23583,-1.0612 0.49194,-5.2933 0.49194,-5.2933 0,0 1.84972,-0.497 1.96764,-1.7941 0.11792,-1.297 0.84194,-5.6473 0.95986,-6.8265 0.11792,-1.1791 1.29694,-6.8979 1.29694,-7.9591 0,-1.0613 -0.94333,-7.3696 -1.17902,-7.8413 -0.23584,-0.4717 0,-4.1269 -2.24042,-5.1292 -1.07639,-0.4815 -3.93236,-2.4183 -4.24486,-3.2426 l -0.41278,-0.7075"
       inkscape:connector-curvature="0"
       style="fill:none;stroke-width:0.1388889" />
    <path
       id="path210"
       stroke-miterlimit="3.86369991"
       d="m 226.65389,3918.9421 -0.53514,0.9178 c 0,0 -4.51514,0.9694 -5.07528,2.0601 -0.45138,0.8792 -0.63652,5.9444 -0.63652,6.8288 0,0.8843 0.22875,4.6126 0.3468,5.2611 0.11792,0.6484 0.0737,0.7811 0.0442,1.3707"
       inkscape:connector-curvature="0"
       style="fill:none;stroke:#002d56;stroke-width:0.75287503;stroke-linejoin:round;stroke-miterlimit:3.86369991" />
    <path
       id="path212"
       stroke-miterlimit="3.86369991"
       d="m 229.24347,3933.7151 c 0.0589,0.4717 -0.0626,3.4924 1.17917,5.4241 0.5307,0.8254 2.84986,5.3211 3.36056,5.8957 0.30555,0.3437 1.09125,0.4773 1.2893,0.9452 1.02431,2.4209 -0.0579,4.8032 1.38889,5.1505 l 0.40514,1.3888"
       inkscape:connector-curvature="0"
       style="fill:none;stroke:#002d56;stroke-width:0.68054169;stroke-miterlimit:3.86369991" />
    <path
       id="path214"
       stroke-miterlimit="3.86369991"
       d="m 232.4682,3918.8968 c -0.24611,0.3407 -1.89375,1.331 -2.86459,1.331 -0.35375,0 -0.14472,0.7233 -0.30125,1.578 -0.16486,0.9003 -0.1768,6.0136 -0.0589,6.6623 0.0478,0.2633 -0.0451,0.3977 -0.059,1.238"
       inkscape:connector-curvature="0"
       style="fill:none;stroke:#002d56;stroke-width:0.56712502;stroke-miterlimit:3.86369991" />
    <path
       id="path216"
       style="fill:none;stroke:#002d56;stroke-width:0.68054169;stroke-linecap:round;stroke-linejoin:round;stroke-miterlimit:3.86369991"
       d="m 234.00653,3925.2188 0.60194,2.3648 0.82542,4.3628 0.29472,2.653 0.059,2.3582 -0.059,2.0046 -0.23583,1.415 -0.29472,1.2971 -0.5307,4.2449 c 1.70973,-0.4127 2.83459,-0.012 3.65528,0.6484"
       inkscape:connector-curvature="0" />
    <path
       id="path218"
       stroke-miterlimit="3.86369991"
       d="m 222.72167,3920.8785 0.11569,0.4051 c -0.16083,-0.8886 2.69167,11.7242 12.41959,17.6199 l 0.47166,0.295"
       inkscape:connector-curvature="0"
       style="fill:none;stroke:#002d56;stroke-width:0.68054169;stroke-miterlimit:3.86369991" />
    <path
       id="path220"
       stroke-miterlimit="3.86369991"
       d="m 224.63139,3920.3576 c 1.02167,3.2473 4.0807,11.3634 11.06778,15.598 l 0.0885,0.5895"
       inkscape:connector-curvature="0"
       style="fill:none;stroke:#002d56;stroke-width:0.68054169;stroke-miterlimit:3.86369991" />
    <path
       id="path222"
       stroke-miterlimit="3.86369991"
       d="m 226.1025,3939.6726 c 1.79403,0.376 2.95125,0.3757 4.57167,-0.058"
       inkscape:connector-curvature="0"
       style="fill:none;stroke:#002d56;stroke-width:0.68054169;stroke-miterlimit:3.86369991" />
    <path
       id="path224"
       stroke-miterlimit="3.86369991"
       d="m 228.91,3948.8596 c 0.3532,2.4498 0.78945,5.3767 0.92306,5.8442 0.23583,0.8254 0.47166,4.9523 0.47166,4.9523 l 0.11792,4.009 0.11792,5.0703 v 4.5986 1.2971 c -0.96834,0.6774 -1.47667,1.6883 -1.52528,3.0328"
       inkscape:connector-curvature="0"
       style="fill:none;stroke:#002d56;stroke-width:0.68054169;stroke-miterlimit:3.86369991" />
    <path
       id="path226"
       stroke-miterlimit="3.86369991"
       d="m 219.21139,3936.2447 c -0.6018,0.9049 -3.57305,-0.8129 -3.72361,1.7509 -0.11569,1.9702 0.26569,4.1968 2.17097,4.4415 l 1.40222,-0.9275 0.37542,-0.3763"
       inkscape:connector-curvature="0"
       style="fill:none;stroke:#002d56;stroke-width:0.62738889;stroke-linejoin:round;stroke-miterlimit:3.86369991" />
    <path
       id="path228"
       d="m 217.44375,3935.194 c -0.81708,-12.7986 -0.43722,-24.0112 1.68528,-32.5011 -5.71514,8.2977 -3.36458,32.51 -3.36458,32.51 z"
       inkscape:connector-curvature="0"
       style="fill:#eed000;fill-rule:evenodd;stroke-width:0.1388889" />
    <path
       id="path230"
       stroke-miterlimit="3.86369991"
       d="m 220.81264,3935.189 -0.41264,1.1202 c -1.06791,0.584 -1.39861,0.6148 -1.38666,0.6141"
       inkscape:connector-curvature="0"
       style="fill:none;stroke:#002d56;stroke-width:0.75287503;stroke-linejoin:round;stroke-miterlimit:3.86369991" />
    <path
       id="path232"
       stroke-miterlimit="3.86369991"
       d="m 218.87056,3936.6468 c 0,0 1.04791,2.7853 0.19028,4.8626"
       inkscape:connector-curvature="0"
       style="fill:none;stroke:#002d56;stroke-width:0.62738889;stroke-linejoin:round;stroke-miterlimit:3.86369991" />
    <path
       id="path234"
       stroke-miterlimit="3.86369991"
       d="m 217.4725,3935.2669 1.15792,0.026 h 0.53653 c 0,0 0.32194,0.6282 -0.17889,0.8499 -0.5007,0.2216 -0.84292,0.2168 -0.84292,0.2168"
       inkscape:connector-curvature="0"
       style="fill:none;stroke:#002d56;stroke-width:0.48447222;stroke-linejoin:round;stroke-miterlimit:3.86369991" />
    <path
       id="path236"
       stroke-miterlimit="3.86369991"
       d="m 217.81667,3942.2844 c -0.38708,0.3499 -0.80917,0.4082 -1.52,0.4717 -1.37625,0.1229 -2.75236,-1.4921 -3.07528,-3.8264 -0.3568,-2.5803 -0.0131,-3.654 2.5432,-3.7266"
       inkscape:connector-curvature="0"
       style="fill:none;stroke:#002d56;stroke-width:0.48447222;stroke-miterlimit:3.86369991" />
    <path
       id="path238"
       stroke-miterlimit="3.86369991"
       d="m 218.26125,3936.3354 h -1.83486 c 0,0 -0.97583,0.2597 -1.01944,1.0532 -0.0694,1.2638 -0.0924,3.0506 0.45139,3.7527 l 0.54375,0.5616"
       inkscape:connector-curvature="0"
       style="fill:none;stroke:#002d56;stroke-width:0.48447222;stroke-miterlimit:3.86369991" />
    <path
       id="path240"
       stroke-miterlimit="3.86369991"
       d="m 224.55445,3911.6919 0.15916,0.9549 -0.22611,0.4097 -0.99194,-0.065 -1.16222,-0.039 c 0,0 -0.65167,-0.062 -0.82139,-0.1205 -0.16973,-0.058 -0.73598,-0.1482 -0.73598,-0.1482 0,0 -0.84097,-1.1132 0.0439,-1.7861 0.88486,-0.6728 1.79639,-1.147 1.96764,-1.2589 0.17111,-0.112 0.25597,-0.083 0.25597,-0.083"
       inkscape:connector-curvature="0"
       style="fill:none;stroke:#002d56;stroke-width:0.56712502;stroke-miterlimit:3.86369991" />
    <path
       id="path242"
       stroke-miterlimit="3.86369991"
       d="m 224.54403,3911.8998 1.4e-4,1.0793"
       inkscape:connector-curvature="0"
       style="clip-rule:evenodd;fill:none;stroke:#002d56;stroke-width:0.22684722;stroke-miterlimit:3.86369991" />
    <path
       id="path244"
       stroke-miterlimit="3.86369991"
       d="m 224.7007,3912.7033 c 0,0 -0.27556,0.9228 -0.12792,1.3566 0.14764,0.4337 0.41181,1.529 0.45528,1.7029 0.0294,0.1179 0.255,1.3296 0.38319,1.5918 0.1282,0.2623 0.42222,1.3723 1.34653,1.6197 0.92431,0.2474 1.95583,0.074 2.54458,-0.3211"
       inkscape:connector-curvature="0"
       style="fill:none;stroke:#002d56;stroke-width:0.45369443;stroke-miterlimit:3.86369991" />
    <path
       id="path246"
       stroke-miterlimit="3.86369991"
       d="m 226.48972,3916.8149 c 0,0 0.44987,-0.1641 0.60264,-0.099 0.15278,0.065 0.59028,0.1161 0.59028,0.1161 0,0 0.54486,-0.099 0.72667,-0.047 0.18194,0.052 0.4718,0.053 0.55764,0.043"
       inkscape:connector-curvature="0"
       style="fill:none;stroke:#002d56;stroke-width:0.34027779;stroke-miterlimit:3.86369991" />
    <path
       id="path248"
       stroke-miterlimit="3.86369991"
       d="m 226.88514,3917.3989 c 0,0 1.07375,0.2094 1.52389,0.02"
       inkscape:connector-curvature="0"
       style="fill:none;stroke:#002d56;stroke-width:0.34027779;stroke-miterlimit:3.86369991" />
    <path
       id="path250"
       stroke-miterlimit="3.86369991"
       d="m 228.37347,3912.7908 c 0,0 0.96848,-0.3982 1.81598,0.2285"
       inkscape:connector-curvature="0"
       style="fill:none;stroke:#002d56;stroke-width:0.34027779;stroke-miterlimit:3.86369991" />
    <path
       id="path252"
       stroke-miterlimit="3.86369991"
       d="m 227.14167,3912.7318 c 0.0746,0.2028 -0.0699,0.7917 -0.19583,1.0264 -0.12584,0.2347 -0.16237,0.6589 -0.24278,0.8393 -0.0806,0.1804 -0.18181,0.4875 -0.17653,0.6582 0.005,0.1707 0.006,0.1565 0.26847,0.2981 0.2625,0.1415 0.4475,0.019 0.64945,-0.041 0.20208,-0.06 0.38139,-0.1179 0.56319,-0.066 0.18195,0.052 0.445,-0.09 0.44056,-0.2751 -0.005,-0.1849 -0.0613,-0.4577 -0.18348,-0.5635 -0.12222,-0.1058 -0.38319,-0.2757 -0.38319,-0.2757"
       inkscape:connector-curvature="0"
       style="fill:none;stroke:#002d56;stroke-width:0.27219445;stroke-miterlimit:3.86369991" />
    <path
       id="path254"
       stroke-miterlimit="3.86369991"
       d="m 225.33209,3912.85 c 0.14638,-0.021 1.07597,-0.5425 1.84791,-0.01"
       inkscape:connector-curvature="0"
       style="fill:none;stroke:#002d56;stroke-width:0.34027779;stroke-miterlimit:3.86369991" />
    <ellipse
       id="ellipse256"
       transform="rotate(-178.99723)"
       stroke-miterlimit="3.86369991"
       ry="0.15777038"
       rx="0.63524801"
       cy="-3908.9236"
       cx="-294.59354"
       style="fill:#002d56;stroke:#002d56;stroke-width:0.22683659;stroke-miterlimit:3.86369991" />
    <path
       id="path258"
       stroke-miterlimit="3.86369991"
       d="m 226.65389,3918.9421 c 0.0337,0.012 0.0683,0.023 0.10389,0.032 0.92431,0.2472 1.95583,0.074 2.54458,-0.3211"
       inkscape:connector-curvature="0"
       style="fill:none;stroke:#002d56;stroke-width:0.45369443;stroke-miterlimit:3.86369991" />
    <path
       id="path260"
       stroke-miterlimit="3.86369991"
       d="m 224.37889,3905.9946 c 0,0 -2.41653,0.7162 -2.11278,1.6546 0.30375,0.9384 0.52695,1.3657 0.75098,1.6796 0.22416,0.3138 0.66708,1.537 0.80597,1.8786 0.13889,0.3414 0.0547,0.963 0.61791,0.6859 3.19806,-1.5737 10.08209,1.1498 8.60125,1.031 -0.39888,-0.032 4.45639,0.9715 5.25223,0.451 0.17111,-0.112 0.51333,-0.3359 -0.0465,-1.1631 -0.32014,-0.473 -1.29389,-1.7132 -1.97514,-2.3198 -0.45028,-0.401 -1.75708,-1.2566 -2.14847,-1.9123 -0.39125,-0.6555 -1.33028,-1.2033 -2.03806,-1.3229 -0.70791,-0.1196 -1.98139,-0.4143 -2.94597,-0.3659 -0.96458,0.048 -1.24722,-0.039 -1.75694,-0.1288 0.25097,0.044 -2.28612,-0.2611 -3.00445,-0.1679 z"
       inkscape:connector-curvature="0"
       style="fill:none;stroke:#002d56;stroke-width:0.45348611;stroke-miterlimit:3.86369991" />
    <path
       id="path262"
       stroke-miterlimit="3.86369991"
       d="m 230.21125,3956.9181 c 0,0 2.54625,1.5622 5.55556,-0.058 2.80375,-1.5096 0.52083,-0.2895 0.52083,-0.2895"
       inkscape:connector-curvature="0"
       style="fill:none;stroke:#002d56;stroke-width:0.68056947;stroke-miterlimit:3.86369991" />
    <path
       id="path264"
       stroke-miterlimit="3.86369991"
       d="m 224.1925,3957.2649 c 0,0 2.81806,1.3326 5.71153,-0.1721"
       inkscape:connector-curvature="0"
       style="fill:none;stroke:#002d56;stroke-width:0.68056947;stroke-miterlimit:3.86369991" />
    <ellipse
       id="ellipse266"
       transform="rotate(-173.99579)"
       stroke-miterlimit="3.86369991"
       ry="0.16596986"
       rx="0.6677683"
       cy="-3868.1179"
       cx="-637.33081"
       style="fill:#002d56;stroke:#002d56;stroke-width:0.22684398;stroke-miterlimit:3.86369991" />
    <path
       id="path268"
       stroke-miterlimit="3.86369991"
       d="m 225.52389,3941.2929 c 1.70722,0.6364 4.34028,0.4628 5.98945,-0.058"
       inkscape:connector-curvature="0"
       style="fill:none;stroke:#002d56;stroke-width:0.68054169;stroke-miterlimit:3.86369991" />
    <path
       id="path270"
       stroke-miterlimit="3.86369991"
       d="m 247.19861,3974.7468 h 23.40875 v 3.1589 h -23.40875 z"
       inkscape:connector-curvature="0"
       style="fill:#eed000;fill-rule:evenodd;stroke:#002d56;stroke-width:0.09451389;stroke-miterlimit:3.86369991" />
    <path
       id="path272"
       d="m 0,4120 h 900 v 200 H 0 Z"
       inkscape:connector-curvature="0"
       style="fill:#b50027;stroke-width:0.1344786" />
  </g>
</svg>
